<?xml version="1.0" standalone="no"?>
<!DOCTYPE svg PUBLIC "-//W3C//DTD SVG 20010904//EN"
 "http://www.w3.org/TR/2001/REC-SVG-20010904/DTD/svg10.dtd">
<svg version="1.0" xmlns="http://www.w3.org/2000/svg"
 width="80.000000pt" height="80.000000pt" viewBox="0 0 80.000000 80.000000"
 preserveAspectRatio="xMidYMid meet">
<metadata>
Created by potrace 1.16, written by Peter Selinger 2001-2019
</metadata>
<g transform="translate(0.000000,80.000000) scale(0.100000,-0.100000)"
fill="#000000" stroke="none">
<path d="M186 784 c-14 -13 -16 -62 -16 -384 0 -322 2 -371 16 -384 23 -24
415 -24 438 0 14 13 16 62 16 384 0 322 -2 371 -16 384 -23 24 -415 24 -438 0z
m414 -369 l0 -275 -195 0 -195 0 0 275 0 275 195 0 195 0 0 -275z"/>
</g>
</svg>
