<?xml version="1.0" standalone="no"?>
<!DOCTYPE svg PUBLIC "-//W3C//DTD SVG 20010904//EN"
 "http://www.w3.org/TR/2001/REC-SVG-20010904/DTD/svg10.dtd">
<svg version="1.0" xmlns="http://www.w3.org/2000/svg"
 width="80.000000pt" height="80.000000pt" viewBox="0 0 80.000000 80.000000"
 preserveAspectRatio="xMidYMid meet">
<metadata>
Created by potrace 1.16, written by Peter Selinger 2001-2019
</metadata>
<g transform="translate(0.000000,80.000000) scale(0.100000,-0.100000)"
fill="#000000" stroke="none">
<path d="M221 696 c-47 -17 -108 -71 -131 -116 -27 -53 -27 -147 0 -200 11
-21 24 -41 30 -45 19 -12 10 -36 -20 -53 -23 -13 -30 -23 -28 -42 3 -21 9 -25
39 -28 20 -2 63 6 95 18 33 12 89 23 125 25 153 8 251 95 250 223 0 72 -11
100 -56 151 -53 58 -109 81 -197 80 -40 0 -88 -6 -107 -13z m199 -43 c89 -36
141 -129 118 -211 -15 -55 -41 -85 -99 -117 -42 -23 -66 -28 -123 -29 -39 -1
-82 -8 -95 -15 -13 -7 -36 -17 -51 -21 l-27 -8 21 39 21 38 -26 28 c-39 42
-51 71 -51 123 0 97 67 166 187 193 27 6 83 -3 125 -20z"/>
<path d="M600 431 c0 -11 15 -29 36 -42 23 -14 44 -38 55 -65 18 -40 18 -45 3
-84 -9 -22 -26 -47 -37 -55 -19 -13 -20 -19 -10 -45 10 -26 9 -30 -7 -30 -9 0
-29 9 -43 20 -19 15 -41 20 -89 20 -72 0 -134 24 -169 64 -25 28 -59 35 -59
11 0 -25 66 -82 116 -99 26 -9 71 -16 100 -16 35 0 64 -7 88 -21 26 -15 48
-19 93 -17 51 3 58 6 61 25 2 14 -4 26 -20 34 -13 6 -25 13 -26 15 -2 1 8 20
22 41 55 81 25 198 -64 243 -48 25 -50 25 -50 1z"/>
</g>
</svg>
