<?xml version="1.0" standalone="no"?>
<!DOCTYPE svg PUBLIC "-//W3C//DTD SVG 20010904//EN"
 "http://www.w3.org/TR/2001/REC-SVG-20010904/DTD/svg10.dtd">
<svg version="1.0" xmlns="http://www.w3.org/2000/svg"
 width="1719.000000pt" height="717.000000pt" viewBox="0 0 1719.000000 717.000000"
 preserveAspectRatio="xMidYMid meet">
<metadata>
Created by potrace 1.16, written by Peter Selinger 2001-2019
</metadata>
<g transform="translate(0.000000,717.000000) scale(0.100000,-0.100000)"
fill="#000000" stroke="none">
<path d="M12956 7149 c-126 -30 -275 -149 -335 -266 -108 -215 -80 -381 136
-821 l85 -173 56 6 c32 4 88 17 126 30 67 22 69 22 87 4 11 -11 19 -24 19 -30
0 -5 5 -7 11 -4 6 4 13 -2 16 -13 2 -11 16 -25 29 -32 13 -8 24 -20 24 -27 0
-8 5 -11 10 -8 6 3 10 1 10 -5 0 -6 4 -9 9 -5 5 3 12 -4 16 -15 11 -34 29 -22
63 43 214 400 312 652 312 801 -1 237 -165 451 -395 512 -56 15 -219 17 -279
3z m228 -273 c49 -20 112 -81 135 -130 27 -54 28 -145 2 -201 -86 -191 -355
-197 -447 -10 -62 128 -8 278 121 336 48 22 142 25 189 5z"/>
<path d="M1804 6315 c-33 -7 -89 -27 -124 -45 l-63 -32 5 -551 c5 -514 6 -555
24 -591 l19 -38 63 6 c71 7 201 52 269 92 37 21 47 24 54 13 5 -8 9 -9 9 -4 1
6 8 -2 16 -17 8 -16 19 -28 24 -28 6 0 10 -6 10 -14 0 -8 7 -16 15 -20 8 -3
15 -17 15 -31 0 -27 17 -34 26 -10 4 8 11 12 17 8 6 -4 7 -1 2 7 -5 8 -2 18 9
26 10 7 16 14 15 16 -1 1 27 64 63 138 135 278 195 471 184 596 -26 324 -332
549 -652 479z m185 -271 c110 -32 188 -145 178 -256 -22 -239 -331 -313 -454
-109 -42 70 -50 123 -28 196 21 75 91 147 161 169 64 19 80 19 143 0z"/>
<path d="M13284 5679 c-3 -6 -15 -9 -25 -6 -22 6 -37 -29 -20 -46 16 -16 14
-57 -3 -57 -8 0 -18 5 -21 10 -10 16 -21 12 -32 -13 -8 -17 -7 -26 6 -37 14
-13 13 -15 -12 -20 -18 -3 -35 -18 -51 -44 l-24 -40 -31 50 c-17 28 -31 42
-31 32 0 -24 -32 -23 -53 0 -20 21 -23 62 -5 62 6 0 23 -10 36 -22 l24 -23
-22 38 c-12 20 -25 39 -29 41 -3 2 -18 -9 -33 -25 -15 -15 -23 -31 -18 -34 14
-8 13 -45 -1 -45 -23 0 -35 -27 -36 -82 0 -46 3 -57 17 -61 23 -6 54 -53 45
-67 -4 -7 -16 -9 -27 -7 -15 4 -19 1 -16 -16 2 -17 9 -21 27 -19 28 3 71 -33
71 -60 0 -23 -32 -24 -54 -2 -15 14 -16 14 -16 0 0 -9 5 -16 10 -16 6 0 10
-13 10 -29 0 -16 7 -36 15 -45 8 -8 15 -21 15 -29 0 -18 31 -80 43 -85 4 -2 7
-15 7 -28 0 -15 6 -24 15 -24 9 0 15 -9 15 -25 0 -14 4 -25 9 -25 5 0 12 -11
15 -25 4 -14 11 -25 16 -25 6 0 10 -11 10 -24 0 -30 16 -42 35 -26 29 24 83
-30 70 -70 -4 -14 -2 -20 9 -20 9 0 16 -6 16 -14 0 -7 7 -19 15 -26 8 -7 15
-23 15 -36 0 -17 6 -24 20 -24 17 0 18 3 8 25 -9 19 -9 28 0 37 17 17 60 -6
68 -36 8 -32 -1 -45 -26 -39 -11 3 -20 0 -20 -6 0 -14 69 -14 90 -1 12 8 11
11 -8 16 -24 7 -24 7 -6 70 4 15 -1 23 -20 32 -28 12 -45 57 -28 74 14 14 77
-46 66 -63 -4 -8 -3 -9 4 -5 7 4 12 16 12 26 0 26 15 33 33 15 18 -17 27 -19
27 -6 0 5 -9 13 -20 16 -20 6 -28 35 -10 35 6 0 10 10 10 22 l0 21 23 -21 c49
-46 81 -9 33 39 -18 18 -22 32 -19 56 5 31 6 32 22 13 9 -10 25 -20 36 -22 32
-5 30 29 -4 61 -27 25 -31 36 -31 81 0 40 5 56 20 68 17 14 19 22 11 50 -12
41 -5 62 21 62 17 0 19 4 13 23 -4 12 -9 36 -12 54 -4 28 -3 31 15 26 28 -7
35 12 17 46 -17 33 -11 63 13 59 8 -2 16 5 17 15 2 11 -3 17 -15 17 -29 0 -50
11 -50 26 0 8 4 14 9 14 5 0 22 5 37 10 l27 11 -22 22 c-27 29 -29 73 -3 62
39 -17 52 -17 58 -1 3 9 12 16 20 16 8 0 14 4 14 10 0 6 -9 6 -26 0 -21 -9
-29 -7 -40 7 -7 10 -14 21 -14 26 0 18 -18 5 -24 -18 -6 -24 -36 -36 -36 -14
0 14 -25 39 -39 39 -6 0 -11 -5 -11 -11 0 -18 -116 -6 -139 15 -16 14 -22 15
-39 5 -17 -10 -25 -10 -46 4 -30 20 -33 20 -42 6z"/>
<path d="M2065 4818 c-14 -29 -94 -164 -124 -208 -9 -13 -14 -11 -32 13 l-21
27 -26 -20 c-37 -30 -53 -9 -23 31 27 36 22 64 -10 54 -20 -7 -21 -5 -15 31 6
36 5 38 -9 20 -8 -11 -15 -25 -15 -32 0 -6 -7 -14 -15 -18 -8 -3 -15 -15 -15
-26 0 -11 -4 -20 -10 -20 -5 0 -10 -7 -10 -15 0 -12 4 -11 20 5 25 25 50 26
50 2 0 -20 -39 -62 -58 -62 -8 0 -12 -26 -12 -85 0 -50 4 -85 10 -85 6 0 10
-16 10 -35 0 -24 5 -35 15 -35 11 0 15 -11 15 -40 0 -22 4 -40 9 -40 5 0 12
-11 15 -25 4 -14 11 -25 16 -25 6 0 10 -11 10 -25 0 -14 7 -28 15 -31 8 -4 15
-17 15 -30 0 -13 5 -24 10 -24 6 0 10 -11 10 -25 0 -16 6 -25 15 -25 9 0 15
-9 15 -25 0 -14 4 -25 9 -25 5 0 12 -11 15 -25 4 -14 11 -25 16 -25 6 0 10 -7
10 -15 0 -8 7 -15 15 -15 8 0 15 -7 15 -15 0 -8 5 -15 10 -15 6 0 10 -8 10
-18 0 -23 37 -56 44 -39 2 7 5 4 5 -5 1 -12 9 -18 26 -18 19 0 25 -5 25 -22 0
-19 -2 -20 -11 -8 -9 13 -10 13 -6 0 2 -9 18 -16 40 -18 24 -2 37 -8 37 -18 0
-8 5 -14 10 -14 6 0 10 -9 10 -21 0 -18 -2 -18 -25 7 -14 15 -25 24 -25 19 0
-14 45 -55 60 -55 29 0 49 36 48 89 -1 36 -5 48 -15 44 -7 -3 -13 -11 -13 -19
0 -23 -19 -16 -26 10 -11 46 41 101 72 75 11 -9 14 -7 14 10 0 12 12 32 27 45
23 20 27 31 25 70 -1 25 3 46 8 46 6 0 10 15 10 33 0 17 7 45 15 61 8 15 15
46 15 68 0 31 7 49 30 75 34 38 37 51 15 59 -16 7 -22 74 -6 74 5 0 8 -7 7
-16 -2 -26 18 -27 47 -4 28 22 37 60 14 60 -7 0 -23 -7 -35 -16 -21 -14 -22
-14 -22 11 0 14 11 38 25 53 31 33 29 58 -5 54 -16 -1 -20 1 -13 6 7 4 16 23
19 42 l7 34 -23 -22 c-28 -26 -36 -27 -44 -6 -9 22 18 50 55 58 34 7 38 21 8
29 -15 4 -20 11 -15 22 11 30 51 73 71 78 11 2 -10 4 -47 4 -51 0 -68 -3 -68
-13 0 -8 -4 -14 -10 -14 -5 0 -10 4 -10 8 0 9 -53 10 -60 0 -3 -3 -21 -8 -40
-10 -28 -2 -35 0 -34 15 2 24 -8 21 -36 -8 -42 -45 -79 -26 -44 23 14 21 14
22 -5 22 -16 0 -21 -6 -21 -24 0 -25 -45 -69 -64 -63 -21 7 -17 28 12 57 l30
30 -24 0 c-17 0 -28 -9 -39 -32z"/>
<path d="M8830 4017 c0 -27 -17 -47 -41 -47 -12 0 -36 -31 -71 -95 -29 -52
-55 -95 -58 -95 -3 0 -16 20 -30 45 -25 46 -34 53 -45 35 -9 -15 -41 -12 -55
5 -16 19 -5 65 16 65 11 0 14 5 10 16 -3 9 -6 18 -6 20 0 2 -6 4 -14 4 -8 0
-17 -13 -21 -30 -4 -16 -11 -30 -16 -30 -5 0 -9 -11 -9 -24 0 -13 -7 -26 -15
-30 -17 -6 -20 -42 -5 -51 14 -8 13 -51 -2 -74 -9 -15 -8 -26 5 -54 9 -19 17
-56 17 -81 0 -25 5 -46 10 -46 6 0 10 -8 11 -17 1 -12 4 -9 8 7 5 19 14 25 35
25 55 0 61 -65 7 -73 -27 -4 -29 -42 -2 -42 32 0 43 -24 35 -79 -5 -42 -4 -52
10 -57 9 -3 16 -17 16 -30 0 -13 4 -24 10 -24 5 0 12 -11 16 -24 4 -19 14 -26
37 -28 30 -3 32 -6 32 -41 0 -29 4 -37 18 -37 20 0 23 -16 5 -23 -10 -4 -10
-6 0 -6 6 -1 12 -13 12 -28 l0 -27 16 22 c17 25 56 29 74 7 17 -21 9 -48 -20
-62 l-25 -13 28 0 c28 0 37 -14 15 -23 -7 -3 -1 -6 15 -6 22 -1 27 -6 28 -28
l1 -28 9 26 c7 18 20 29 39 33 41 8 39 34 -2 38 -29 3 -33 7 -36 35 -3 28 0
33 24 39 21 5 31 2 45 -14 22 -28 49 -29 49 -2 0 21 22 46 56 66 24 14 30 50
12 71 -10 13 -10 17 0 20 7 3 12 24 12 59 0 30 5 54 10 54 6 0 10 11 10 25 0
27 9 32 27 14 7 -7 23 -9 37 -5 26 6 33 27 20 60 -7 19 -60 22 -67 4 -3 -8 -6
-5 -6 5 -1 21 22 47 41 47 19 0 38 21 38 41 0 20 -38 51 -52 43 -4 -3 -8 2 -8
11 0 8 11 20 25 25 19 7 25 17 25 39 0 16 -4 33 -10 36 -5 3 -10 17 -10 30 0
13 5 27 10 30 14 9 12 62 -2 69 -9 3 -8 8 5 16 11 7 16 18 12 30 -3 10 0 22 7
27 12 7 31 33 44 60 3 6 -4 21 -15 32 -12 12 -21 26 -21 31 0 19 -25 10 -35
-12 -7 -15 -19 -23 -35 -23 -16 0 -28 8 -35 23 -12 28 -45 30 -45 2 0 -26 -48
-40 -64 -17 -6 8 -18 25 -26 36 -19 28 -26 26 -25 -5 0 -57 -66 -57 -73 0 -4
34 -42 38 -42 3z"/>
<path d="M5891 2237 c-19 -34 -34 -74 -33 -88 2 -19 -5 -29 -23 -37 -13 -6
-33 -28 -43 -49 l-20 -37 -21 34 c-18 30 -26 35 -58 35 -31 0 -39 4 -41 21 -2
12 5 29 14 38 13 14 15 22 6 42 l-11 24 -30 -29 c-21 -21 -28 -35 -24 -54 4
-18 -1 -31 -16 -43 -24 -21 -26 -36 -9 -64 10 -16 10 -24 0 -40 -14 -24 -16
-76 -2 -85 6 -3 10 -17 10 -30 0 -30 25 -55 54 -55 13 0 29 -7 36 -15 11 -13
9 -21 -8 -45 -23 -31 -29 -60 -12 -60 6 0 10 -18 10 -40 0 -29 4 -40 15 -40 9
0 15 -9 15 -22 0 -17 3 -19 12 -10 16 16 53 15 68 -3 17 -20 3 -52 -28 -64
-15 -5 -21 -10 -14 -10 6 -1 12 -9 12 -20 0 -10 11 -27 25 -37 14 -10 25 -28
25 -39 0 -22 45 -65 69 -65 14 0 14 -2 1 -10 -10 -6 -11 -10 -2 -10 6 0 12
-11 12 -25 0 -16 6 -25 15 -25 8 0 15 -7 15 -15 0 -8 5 -15 11 -15 14 0 39
-25 39 -39 0 -6 7 -11 15 -11 8 0 15 -7 15 -16 0 -12 6 -15 25 -10 18 5 25 2
25 -8 0 -13 20 -26 41 -26 5 0 9 14 9 30 0 17 -4 30 -10 30 -5 0 -10 7 -10 15
0 8 5 15 10 15 21 0 9 19 -17 28 l-28 9 25 8 c15 5 25 4 28 -4 2 -6 11 -11 19
-11 13 0 13 2 2 17 -11 13 -11 17 -1 20 6 3 12 18 12 34 0 19 5 29 15 29 9 0
15 9 15 25 0 14 5 25 10 25 6 0 10 11 10 24 0 13 4 26 10 28 5 2 13 31 16 66
4 34 11 62 15 62 5 0 9 22 9 48 0 26 5 53 11 59 6 6 14 43 17 82 2 39 8 71 13
71 4 0 11 29 14 65 4 36 11 65 16 65 5 0 9 36 9 80 0 66 3 80 16 80 23 0 11
24 -14 28 -42 6 -22 22 28 22 47 0 50 2 50 25 0 22 -3 25 -24 19 -18 -4 -28 0
-38 15 -23 37 -54 26 -48 -18 1 -9 -4 -12 -15 -7 -9 3 -28 6 -41 6 -16 0 -28
8 -34 23 -5 12 -9 16 -9 10 -1 -7 -7 -13 -15 -13 -8 0 -28 -8 -44 -17 -26 -15
-32 -15 -47 -3 -10 8 -15 23 -12 37 3 19 0 23 -19 23 -18 0 -24 -5 -24 -23 0
-31 -18 -47 -51 -47 -36 0 -48 33 -23 61 13 15 14 19 3 19 -8 0 -29 -28 -48
-63z"/>
<path d="M15846 1408 c-9 -20 -20 -39 -26 -43 -16 -10 -11 -21 11 -22 30 -3
50 -23 47 -47 -4 -27 -47 -24 -67 5 -13 19 -16 17 -54 -48 -47 -83 -43 -78
-61 -64 -10 8 -16 9 -21 1 -17 -27 -75 6 -75 43 0 17 10 21 43 17 16 -1 16 1
5 19 -7 12 -21 21 -31 21 -10 0 -27 4 -37 10 -40 21 -69 -21 -35 -50 8 -7 15
-23 15 -36 0 -20 -5 -24 -30 -24 -27 0 -30 -3 -30 -32 0 -31 0 -31 20 -13 20
18 21 18 48 -2 48 -36 37 -82 -15 -62 -22 8 -23 7 -23 -41 0 -28 4 -50 9 -50
5 0 11 -18 15 -40 4 -26 11 -40 21 -40 8 0 15 5 15 10 0 12 40 13 56 2 22 -14
34 -48 22 -60 -18 -18 -37 -14 -63 13 l-25 24 0 -28 c0 -16 7 -31 15 -35 8 -3
15 -18 16 -33 0 -27 1 -27 9 -5 17 41 90 16 90 -31 0 -21 -34 -31 -60 -17 -14
7 -20 8 -20 0 0 -6 7 -13 15 -16 8 -4 15 -17 15 -30 0 -13 4 -24 9 -24 5 0 12
-11 15 -25 4 -14 11 -25 16 -25 6 0 10 -11 10 -25 0 -14 7 -28 15 -31 8 -4 15
-15 15 -26 0 -21 22 -48 39 -48 6 0 11 -7 11 -15 0 -8 4 -15 9 -15 5 0 13 -10
17 -22 10 -32 91 -108 114 -108 11 0 20 -5 20 -11 0 -6 7 -17 15 -25 8 -9 15
-11 15 -5 0 6 9 11 19 11 26 0 51 10 51 21 0 5 -11 9 -25 9 -16 0 -25 6 -25
15 0 8 7 15 15 15 11 0 15 11 15 36 0 35 18 64 39 64 6 0 11 18 11 40 0 22 4
40 10 40 5 0 12 11 16 25 3 14 10 25 15 25 5 0 9 25 9 56 0 50 2 55 18 49 37
-16 49 -16 61 -1 16 19 0 52 -29 61 -21 7 -27 30 -10 40 6 3 10 31 10 61 0 58
1 59 30 44 24 -13 50 -3 50 20 0 19 -30 50 -48 50 -16 0 -15 12 3 46 8 16 15
44 15 62 0 29 3 32 30 32 39 0 41 30 4 59 -15 12 -22 21 -15 21 24 0 10 21
-18 26 -55 11 -92 66 -55 81 16 6 73 -21 86 -41 4 -6 11 -7 15 -2 4 5 2 11 -4
13 -7 3 -13 11 -13 19 0 8 -10 14 -25 14 -14 0 -25 5 -25 10 0 6 14 10 30 10
l30 0 -20 20 c-11 11 -20 29 -20 40 0 15 -7 20 -27 20 -26 0 -26 0 -8 -20 18
-19 18 -22 2 -38 -16 -15 -20 -15 -45 -2 -15 9 -31 25 -37 36 -9 17 -13 19
-23 8 -6 -7 -12 -17 -12 -23 0 -14 -23 -19 -48 -10 -13 5 -29 22 -35 39 -15
41 -45 41 -39 0 4 -25 1 -30 -16 -30 -35 0 -54 12 -67 44 l-14 31 -15 -37z"/>
</g>
</svg>
