<?xml version="1.0" standalone="no"?>
<!DOCTYPE svg PUBLIC "-//W3C//DTD SVG 20010904//EN"
 "http://www.w3.org/TR/2001/REC-SVG-20010904/DTD/svg10.dtd">
<svg version="1.0" xmlns="http://www.w3.org/2000/svg"
 width="1920.000000pt" height="1000.000000pt" viewBox="0 0 1920.000000 1000.000000"
 preserveAspectRatio="xMidYMid meet">
<metadata>
Created by potrace 1.16, written by Peter Selinger 2001-2019
</metadata>
<g transform="translate(0.000000,1000.000000) scale(0.100000,-0.100000)"
fill="#000000" stroke="none">
<path d="M0 5000 l0 -5000 2531 0 2531 1 17 21 c14 17 18 18 18 5 0 -9 -4 -14
-9 -11 -4 3 -8 1 -8 -5 0 -6 144 -10 400 -10 220 0 400 2 400 5 0 3 -4 13 -9
22 -5 10 -5 26 0 37 9 19 9 19 6 -1 -3 -12 2 -32 9 -45 7 -13 13 -18 14 -11 0
7 4 11 9 7 5 -3 12 -1 16 4 3 6 -3 8 -13 6 -15 -3 -19 3 -19 30 0 20 4 32 10
28 6 -4 8 1 4 11 -4 11 -3 15 4 11 6 -4 9 0 7 11 -2 10 3 19 10 20 6 1 16 2
20 3 5 0 10 16 11 34 5 74 4 70 22 45 10 -12 16 -25 13 -29 -2 -4 3 -12 10
-18 19 -16 16 3 -8 47 -10 19 -15 36 -12 40 3 3 6 1 6 -5 0 -5 7 -10 15 -10 8
0 15 7 15 14 0 8 -4 12 -9 8 -5 -3 -12 -1 -16 4 -3 6 4 8 16 6 18 -4 21 0 17
25 -2 16 -1 27 4 24 11 -7 10 -47 -3 -81 -8 -22 -12 -24 -19 -13 -6 8 -10 10
-10 4 0 -6 7 -17 16 -24 8 -8 14 -9 13 -4 0 5 2 20 6 32 6 17 10 20 16 11 4
-7 5 5 2 27 -2 21 0 52 6 68 10 25 13 27 29 15 15 -13 16 -12 4 3 -11 14 -17
15 -32 6 -10 -7 -16 -18 -13 -27 4 -10 0 -9 -10 4 -18 22 -22 71 -7 80 6 3 10
12 10 18 0 7 -4 6 -10 -3 -9 -13 -10 -13 -10 1 0 8 6 21 13 28 10 11 10 13 0
7 -18 -10 -16 4 7 42 26 42 16 42 -11 -1 l-21 -32 7 30 c4 17 8 35 9 41 1 7 8
19 14 27 9 10 10 17 2 22 -5 3 -10 11 -10 17 0 6 10 3 22 -8 16 -13 19 -14 10
-2 -8 10 -9 19 -3 22 5 4 9 15 8 26 -1 10 -5 16 -9 14 -4 -3 -8 4 -8 16 0 18
2 19 13 8 8 -7 16 -20 19 -28 3 -10 6 -8 10 8 4 12 1 25 -4 29 -7 4 -8 1 -3
-8 5 -8 4 -10 0 -6 -5 4 -10 14 -11 23 -2 11 1 12 10 5 7 -6 16 -8 19 -5 3 3
4 -9 2 -27 l-4 -34 15 25 c14 24 15 24 11 2 -3 -12 -1 -20 4 -16 5 3 9 12 9
20 0 8 5 12 11 9 6 -4 8 -14 5 -24 -5 -12 -2 -11 9 3 14 18 20 15 16 -7 -1 -5
3 -6 8 -3 5 4 11 1 13 -6 3 -7 7 -5 11 6 5 11 3 15 -5 10 -7 -5 -8 -3 -3 6 6
9 4 11 -5 5 -8 -5 -11 -4 -6 3 4 7 -1 10 -14 7 -11 -2 -20 0 -20 6 0 5 3 9 8
10 4 0 15 2 24 4 10 2 17 0 17 -3 -3 -20 2 -25 11 -12 7 11 8 4 6 -22 -2 -21
-1 -36 3 -35 3 1 6 -2 6 -8 0 -5 -4 -9 -8 -7 -5 1 -6 -2 -2 -8 5 -8 11 -8 21
1 7 6 11 15 8 20 -3 5 -1 9 5 9 5 0 8 10 6 21 -3 12 -1 18 3 15 4 -4 7 -11 7
-14 0 -4 4 -13 9 -21 6 -10 5 -12 -2 -7 -7 4 -12 3 -12 -3 0 -5 -3 -18 -6 -28
-6 -16 -5 -16 9 2 13 16 16 17 17 4 0 -8 -5 -20 -11 -26 -8 -8 -7 -13 2 -18 7
-5 10 -4 5 3 -3 6 -2 13 4 17 5 3 10 18 11 33 l1 27 7 -25 c5 -14 3 -31 -3
-40 -10 -13 -9 -13 7 -1 20 15 23 2 5 -19 -11 -12 -10 -12 5 -1 14 11 17 11
17 0 0 -12 2 -12 9 -1 6 11 16 6 41 -20 18 -18 29 -27 26 -21 -4 7 -2 13 3 13
6 0 11 5 11 11 0 5 -5 7 -12 3 -7 -4 -8 -3 -4 5 11 17 29 2 23 -20 -3 -10 2
-24 12 -31 14 -12 15 -11 2 5 -8 10 -9 17 -3 17 6 0 14 -5 17 -10 4 -6 11 -8
16 -5 8 6 13 -8 10 -30 -1 -5 8 1 20 15 l22 25 -6 -23 c-3 -13 -3 -21 1 -17 9
9 9 74 0 69 -3 -2 -4 4 -1 15 3 10 0 22 -6 25 -7 4 -9 -6 -6 -29 3 -20 1 -44
-5 -53 -7 -13 -9 -5 -6 28 5 41 4 43 -9 26 -10 -14 -12 -22 -4 -27 7 -4 5 -8
-6 -12 -9 -4 -14 -3 -10 3 4 6 1 9 -6 8 -9 -2 -13 15 -14 59 -1 34 2 60 5 58
3 -2 5 -29 5 -61 -2 -49 0 -55 11 -39 9 12 10 23 4 36 -7 12 -7 20 0 24 6 4 8
10 6 14 -3 4 0 13 5 21 9 13 9 13 7 0 -2 -8 2 -15 7 -15 6 0 9 4 7 8 -1 5 2 6
8 2 8 -5 8 -11 0 -20 -7 -9 -6 -16 5 -25 8 -7 15 -20 15 -29 0 -14 2 -14 10
-1 6 10 4 20 -6 31 -10 12 -12 19 -4 24 5 3 8 10 5 15 -3 5 -1 11 4 14 10 7 9
-13 -2 -30 -4 -7 -1 -17 7 -23 10 -9 17 -7 27 6 12 15 12 16 -6 10 -17 -6 -17
-4 3 9 12 9 22 21 22 26 0 7 -5 6 -13 0 -10 -8 -13 -6 -14 11 -2 17 0 19 7 7
8 -12 10 -11 11 5 0 19 1 19 8 1 7 -17 8 -18 14 -3 4 10 0 20 -10 25 -13 8
-13 10 -1 15 10 3 13 15 10 36 -2 17 -8 29 -12 26 -5 -3 -12 0 -16 6 -5 8 -3
9 6 4 10 -6 12 -4 7 9 -5 11 -3 15 5 10 8 -5 9 -2 5 9 -3 9 -2 19 3 22 6 4 10
15 10 26 0 11 -5 17 -10 14 -6 -4 -8 -10 -5 -15 3 -5 2 -11 -2 -13 -5 -3 -9 8
-10 25 0 21 2 26 8 17 8 -14 9 -13 9 19 0 4 -4 7 -9 7 -5 0 -12 3 -16 6 -3 4
3 6 14 5 11 0 19 4 18 9 -1 6 -5 9 -8 8 -6 -2 -9 16 -10 54 -1 13 -5 20 -10
17 -5 -3 -12 2 -15 11 -5 12 -9 13 -14 5 -5 -8 -9 -7 -13 5 -4 9 -3 13 2 10 5
-3 12 3 14 12 4 15 5 15 6 -2 1 -16 3 -17 10 -6 10 15 3 44 -8 37 -4 -3 -7 6
-7 19 0 13 5 23 10 22 6 -1 11 13 10 30 0 18 2 30 5 27 3 -3 6 -20 6 -37 0
-22 5 -32 15 -32 8 0 15 -5 15 -12 0 -6 3 -15 7 -19 4 -4 5 -19 2 -33 -6 -25
-6 -25 9 -6 11 14 15 15 14 5 -1 -8 3 -16 8 -17 6 -2 10 6 10 16 0 11 3 22 6
25 9 9 5 -37 -5 -53 -6 -10 -4 -12 12 -7 11 4 23 2 27 -4 3 -6 11 -7 17 -4 7
4 8 2 4 -5 -4 -6 -12 -9 -17 -6 -5 4 -9 1 -9 -5 0 -6 -5 -8 -11 -4 -8 4 -7 9
2 16 10 7 8 8 -8 3 -12 -3 -24 -1 -28 5 -8 14 -35 -18 -34 -40 0 -10 3 -8 10
5 7 16 8 13 5 -13 -2 -17 -1 -30 4 -27 4 3 6 -4 3 -15 -3 -11 1 -28 8 -38 13
-16 13 -16 -5 -2 -16 12 -18 12 -11 1 5 -8 4 -12 -1 -8 -6 3 -11 -4 -11 -16
-2 -17 0 -19 8 -7 12 19 6 -22 -10 -63 -6 -16 -11 -36 -10 -45 1 -11 4 -7 9 8
l8 25 1 -27 c1 -16 -4 -28 -11 -28 -7 0 -5 -5 5 -11 9 -5 17 -15 17 -21 0 -7
-4 -7 -13 1 -14 11 -16 5 -18 -42 0 -9 -4 -15 -9 -12 -10 6 -7 -21 3 -31 4 -4
7 -12 7 -18 0 -5 -7 -1 -16 10 -8 10 -13 13 -9 6 3 -7 8 -25 11 -40 3 -21 2
-24 -6 -12 -8 11 -9 8 -5 -15 4 -21 3 -25 -3 -11 -10 22 -21 10 -17 -17 2 -9
-1 -17 -7 -17 -6 0 -8 7 -4 15 3 8 1 15 -5 15 -6 0 -9 -8 -7 -17 2 -10 10 -18
18 -18 8 0 19 -4 23 -10 5 -6 7 -4 5 5 -2 9 2 17 7 18 12 2 14 -19 3 -34 -4
-6 -1 -19 8 -30 14 -18 15 -18 5 3 -7 13 -7 24 -2 27 10 6 9 20 -3 48 -9 20
11 61 25 53 5 -4 9 -3 8 2 -3 20 2 25 15 14 12 -10 14 -5 9 31 -2 23 -1 39 3
35 8 -7 14 -29 16 -54 1 -7 5 -10 10 -7 4 3 4 14 -2 24 -6 11 -6 21 -1 24 14
9 7 39 -10 44 -12 3 -12 2 0 -6 9 -6 10 -12 3 -16 -18 -11 -31 28 -24 75 6 42
6 42 12 14 4 -16 2 -35 -2 -42 -6 -8 -3 -10 9 -8 10 2 20 4 23 4 2 1 -1 6 -8
13 -14 14 -16 62 -3 53 6 -3 14 3 20 12 12 23 17 23 36 -2 l15 -20 -6 20 c-6
16 -4 18 6 8 7 -6 13 -24 13 -38 0 -16 3 -22 7 -15 5 8 9 8 13 -3 7 -19 -16
-30 -31 -15 -7 7 -10 5 -8 -8 5 -26 -5 -39 -16 -23 -6 11 -8 9 -6 -6 2 -13 -2
-19 -12 -17 -8 2 -12 0 -8 -4 4 -4 3 -13 -3 -20 -7 -9 -6 -14 3 -20 7 -4 10
-3 5 1 -4 5 9 26 30 47 42 43 69 52 32 11 -13 -15 -17 -22 -8 -15 15 11 16 7
14 -42 -1 -31 1 -53 5 -51 3 2 6 29 5 60 0 31 3 59 7 61 7 5 14 -94 8 -121 -1
-5 1 -7 5 -3 10 9 11 157 2 151 -5 -3 -4 4 2 15 6 12 16 24 21 27 6 3 8 16 6
29 -3 15 1 23 10 23 9 0 10 -4 4 -12 -5 -6 -5 -17 0 -25 5 -8 3 -21 -6 -34
-12 -17 -11 -22 4 -40 9 -11 11 -16 4 -12 -11 6 -13 -1 -12 -30 3 -64 2 -72
-11 -54 -9 12 -10 12 -5 -3 3 -10 6 -26 7 -35 1 -10 4 -7 9 8 6 18 9 20 10 8
1 -10 3 -22 4 -27 2 -19 23 -34 31 -22 3 6 3 10 -2 9 -4 -2 -10 1 -13 6 -3 5
3 10 13 12 17 2 21 -6 18 -36 -1 -8 8 0 20 18 12 18 19 36 15 39 -3 4 -6 0 -6
-7 0 -9 -7 -7 -21 6 -12 10 -24 19 -28 19 -3 0 -5 6 -5 12 1 7 -2 10 -7 7 -5
-3 -5 5 -1 17 5 12 16 23 25 25 10 1 15 -2 11 -7 -3 -5 -10 -7 -15 -4 -5 4 -9
-1 -9 -10 0 -9 4 -14 9 -10 5 3 13 0 17 -6 4 -7 3 -9 -4 -5 -6 3 -13 2 -16 -3
-9 -14 20 -21 35 -8 11 10 11 9 0 -5 -7 -10 -9 -18 -4 -18 17 0 32 22 25 38
-5 14 -4 15 10 2 9 -8 13 -17 9 -20 -6 -4 -7 -14 -2 -37 1 -5 7 3 15 17 11 21
11 27 -2 37 -9 7 -11 13 -5 13 7 0 15 -5 18 -10 5 -8 11 -7 21 1 7 6 12 15 9
19 -3 5 -1 11 4 14 10 7 9 -20 -2 -30 -4 -4 1 -13 11 -21 15 -12 15 -12 0 -7
-13 4 -15 1 -11 -16 4 -16 8 -18 14 -8 6 9 9 10 9 1 0 -7 6 -11 13 -9 6 1 9 1
6 -1 -3 -2 -4 -18 -3 -36 l3 -32 -8 30 -9 30 -2 -30 -2 -30 -8 30 -8 30 -2
-30 -2 -30 -8 30 -8 30 -2 -30 -2 -30 -8 30 c-7 30 -7 30 -12 5 -5 -24 -5 -24
-3 2 1 15 -3 24 -8 21 -5 -3 -6 -19 -3 -37 3 -17 7 -40 9 -51 2 -11 8 -19 15
-17 7 1 12 -5 12 -13 0 -26 1 -30 16 -46 8 -9 11 -19 7 -24 -5 -4 -2 -5 5 -1
10 6 11 11 0 23 -21 26 -27 88 -10 105 8 8 10 2 6 -23 -6 -40 23 -101 49 -105
10 -1 15 1 13 4 -2 4 0 16 5 27 6 16 8 14 8 -13 1 -18 6 -43 12 -55 10 -22 10
-22 -10 1 l-20 22 -7 -22 c-4 -13 -7 -34 -5 -47 2 -15 -1 -21 -8 -16 -6 3 -9
10 -6 15 3 5 1 12 -5 15 -8 5 -8 11 -1 19 8 9 7 13 -3 13 -13 0 -16 -20 -4
-32 8 -9 -24 -75 -34 -69 -5 3 -3 13 4 22 9 12 6 11 -10 -2 -12 -11 -22 -21
-22 -24 0 -3 3 -2 7 1 8 8 33 -11 33 -25 0 -6 -8 -4 -17 3 -16 13 -17 12 -4
-3 7 -10 17 -15 22 -12 12 7 22 -40 14 -68 -5 -19 -4 -20 5 -8 10 12 11 11 7
-7 -3 -13 0 -26 5 -30 6 -3 9 -2 6 3 -3 5 -2 18 3 29 7 18 8 18 8 -4 1 -13 4
-21 7 -18 4 4 -1 38 -10 78 -10 39 -15 73 -12 76 3 4 6 -4 6 -16 0 -12 4 -19
10 -16 7 4 7 13 0 24 -6 12 -5 22 1 28 6 6 11 24 11 41 1 29 18 37 18 8 0 -7
12 -11 30 -10 17 1 32 -2 35 -6 3 -5 -8 -6 -25 -4 -18 3 -30 1 -30 -6 0 -6 4
-9 9 -6 5 4 7 -4 4 -15 -6 -20 -7 -20 -19 7 -15 35 -18 17 -4 -21 9 -24 12
-26 28 -14 9 7 5 0 -11 -17 -37 -42 -34 -54 5 -18 26 23 28 24 11 4 -20 -23
-21 -28 -8 -41 9 -8 22 -44 29 -80 10 -46 15 -55 15 -31 1 17 5 32 9 32 5 0 7
-15 6 -33 -3 -29 -3 -30 5 -7 9 24 9 24 10 2 1 -12 7 -21 14 -20 6 2 11 -3 9
-11 -3 -12 0 -12 12 -1 13 10 16 10 16 0 0 -8 3 -10 6 -7 4 4 2 13 -4 20 -12
14 -6 27 12 27 6 0 5 -4 -2 -9 -11 -7 -11 -9 2 -14 8 -3 18 -1 22 4 4 6 16 2
33 -13 14 -12 18 -14 9 -4 -12 14 -14 25 -7 42 5 14 5 24 -1 24 -5 0 -11 -9
-13 -20 -4 -17 -4 -16 -3 2 1 16 7 23 21 23 11 1 19 5 18 11 -1 5 14 10 32 10
18 0 32 -3 29 -7 -2 -4 4 -13 13 -20 15 -12 16 -12 9 6 -4 11 -4 16 0 12 4 -4
14 -1 23 5 13 10 14 10 4 -2 -18 -20 -16 -35 3 -20 12 11 15 11 12 -1 -2 -9 5
-14 19 -13 13 1 20 -2 18 -6 -6 -9 -25 -8 -42 3 -7 5 -13 4 -13 -2 0 -5 6 -14
13 -18 8 -4 16 -16 20 -25 3 -10 12 -18 19 -18 9 0 8 3 -2 10 -13 8 -12 10 3
10 9 0 17 -5 17 -12 0 -6 7 -3 15 8 12 15 14 16 9 2 -6 -16 29 -17 556 -17
480 0 561 2 556 14 -3 8 0 17 6 21 6 4 8 3 5 -2 -3 -6 -2 -16 4 -24 7 -12 9
-10 9 7 0 12 5 25 10 28 6 4 8 11 4 16 -3 5 -2 9 3 8 22 -4 43 2 38 11 -4 6 1
7 11 3 12 -4 15 -3 10 6 -4 6 -4 11 1 10 4 -1 10 0 13 1 3 1 16 3 30 4 14 1
31 5 38 10 7 4 12 4 11 -1 -3 -20 2 -34 10 -28 6 3 8 15 6 27 -3 11 -1 18 2
14 13 -12 11 -35 -3 -47 -8 -6 -14 -18 -14 -27 0 -10 7 -6 20 11 11 14 20 30
20 35 0 6 4 14 10 17 11 7 3 -23 -11 -41 -5 -6 -5 -15 -1 -19 4 -5 2 -5 -4 -2
-9 5 -34 -31 -34 -48 0 -3 518 -4 1151 -2 l1152 2 92 180 c51 99 127 248 169
330 42 83 117 227 166 320 48 94 137 266 197 382 59 117 113 222 119 234 14
26 7 59 -15 66 -9 2 -34 13 -57 24 -23 10 -46 19 -53 19 -6 0 -11 5 -11 10 0
6 -9 10 -19 10 -11 0 -32 6 -48 14 -15 8 -44 21 -63 29 -50 21 -194 87 -355
162 -162 76 -169 78 -200 65 -16 -6 -46 -15 -67 -19 l-36 -8 -16 63 c-9 35
-16 66 -16 69 0 3 20 5 44 5 41 0 47 4 93 57 26 32 59 73 72 92 60 85 167 248
173 264 7 17 28 24 28 10 -1 -8 -91 -150 -109 -170 -6 -7 -11 -15 -11 -19 0
-3 -19 -34 -43 -68 -71 -105 -104 -173 -91 -193 12 -19 80 -38 174 -49 30 -3
59 -10 65 -15 5 -5 27 -9 49 -9 21 0 62 -6 90 -14 50 -14 118 -27 241 -46 33
-5 71 -13 85 -18 14 -5 48 -10 75 -11 28 -1 89 -11 137 -22 123 -27 141 -15
93 61 -14 22 -25 42 -25 46 0 3 -14 26 -30 51 -17 24 -30 50 -30 58 0 8 -5 17
-11 20 -5 4 -15 17 -20 28 -5 12 -15 31 -22 42 -51 83 -63 103 -75 120 -6 11
-17 31 -23 45 -5 13 -13 27 -17 30 -4 3 -15 21 -26 40 -38 72 -79 145 -87 156
-9 11 -45 77 -77 137 -8 16 -25 32 -38 37 -35 14 -106 2 -126 -21 -19 -22 -28
-24 -28 -7 0 6 -7 20 -17 30 -15 17 -14 18 33 19 106 2 121 5 147 22 15 9 27
26 27 36 0 10 7 24 15 31 8 7 15 21 15 31 0 11 4 19 9 19 5 0 12 12 16 27 6
29 122 264 155 318 11 17 31 56 46 87 15 31 31 55 35 52 10 -6 -1 -44 -12 -44
-5 0 -9 -6 -9 -14 0 -8 -28 -70 -61 -138 -34 -67 -78 -157 -98 -198 -20 -41
-42 -81 -48 -88 -7 -7 -13 -20 -13 -28 0 -8 -7 -17 -15 -20 -8 -4 -15 -17 -15
-29 0 -13 -4 -27 -10 -30 -5 -3 -10 -15 -10 -25 0 -24 31 -90 42 -90 4 0 8 -6
8 -12 0 -7 21 -44 46 -83 26 -38 50 -79 55 -90 5 -11 18 -33 29 -50 30 -46 43
-69 70 -122 14 -26 28 -50 31 -53 4 -3 19 -27 33 -55 15 -27 35 -62 44 -77 65
-103 92 -151 92 -163 0 -8 5 -17 11 -20 5 -4 14 -18 19 -31 7 -17 17 -24 35
-24 14 0 25 3 26 8 0 4 1 43 3 87 1 44 7 90 14 102 7 12 14 64 17 115 7 117 7
118 15 118 4 0 7 6 8 13 0 6 3 52 6 101 6 97 13 129 25 121 13 -7 3 -152 -13
-188 -7 -18 -14 -73 -15 -122 -1 -49 -5 -94 -9 -100 -18 -28 -23 -196 -6 -202
8 -3 47 66 49 87 2 21 73 149 83 150 18 0 15 -11 -23 -86 -19 -37 -35 -74 -35
-81 0 -7 -4 -13 -10 -13 -5 0 -10 -6 -10 -13 0 -7 -9 -28 -19 -48 -23 -42 -27
-67 -18 -95 9 -25 44 -38 55 -20 6 11 48 24 144 45 41 9 76 -3 44 -15 -11 -4
-35 -7 -55 -7 -20 0 -41 -6 -46 -14 -6 -7 -27 -15 -47 -17 -38 -3 -57 -16 -76
-53 -9 -16 -9 -23 1 -30 20 -16 84 -43 100 -43 9 0 18 -4 22 -9 3 -5 19 -12
36 -16 17 -4 42 -13 57 -21 15 -8 34 -14 42 -14 9 0 24 -6 35 -14 11 -7 37
-16 58 -20 20 -4 37 -11 37 -16 0 -6 13 -10 29 -10 16 0 34 -7 41 -15 7 -8 23
-15 35 -15 30 0 55 -10 55 -21 0 -15 -57 -10 -70 6 -7 8 -25 15 -41 15 -15 0
-34 7 -43 15 -8 8 -27 15 -43 15 -15 0 -37 7 -47 15 -11 8 -31 15 -45 15 -14
0 -35 7 -45 15 -11 8 -31 15 -46 15 -14 0 -34 6 -45 14 -11 7 -31 15 -45 18
-14 3 -33 9 -42 13 -13 5 -17 2 -15 -14 1 -12 9 -24 19 -27 10 -3 18 -9 18
-14 0 -5 8 -11 18 -14 10 -4 32 -19 48 -34 16 -16 45 -39 64 -52 19 -13 37
-27 40 -30 3 -4 82 -64 175 -133 94 -70 175 -130 180 -135 41 -33 470 -355
510 -382 28 -19 55 -39 60 -45 6 -7 69 -56 140 -110 72 -54 136 -105 143 -112
7 -7 16 -13 20 -13 4 0 21 -13 38 -28 18 -15 42 -34 54 -42 37 -25 114 -83
128 -97 7 -7 16 -13 20 -13 4 0 24 -16 45 -35 21 -19 48 -35 61 -35 29 0 62
36 71 77 3 18 10 33 15 33 4 0 11 16 15 36 3 21 13 48 22 60 8 13 12 24 8 24
-4 0 -1 10 7 22 8 13 25 52 38 88 13 36 29 72 37 81 7 8 13 25 13 36 0 11 6
26 14 32 11 9 13 6 11 -21 -2 -17 -9 -37 -17 -42 -8 -6 -13 -16 -11 -23 3 -7
-2 -27 -10 -45 -8 -18 -22 -53 -32 -78 -10 -25 -27 -64 -37 -87 -10 -23 -18
-49 -18 -57 0 -9 -4 -16 -10 -16 -5 0 -10 -8 -10 -18 0 -9 -8 -33 -18 -52 -11
-19 -17 -41 -15 -47 5 -15 43 -18 43 -3 0 6 11 10 24 10 14 0 31 7 40 15 8 8
20 15 27 15 7 0 37 12 68 26 117 54 177 80 261 115 14 6 38 17 53 25 16 8 33
14 38 14 9 0 50 17 136 56 18 8 50 22 70 31 21 9 50 22 66 30 15 8 27 12 27 9
0 -5 42 13 100 43 8 5 71 31 140 60 69 28 133 56 142 61 26 15 128 49 128 44
0 -8 -24 -30 -35 -33 -5 -2 -32 -13 -60 -26 -27 -13 -72 -33 -100 -45 -27 -11
-59 -25 -70 -30 -11 -5 -42 -18 -70 -30 -27 -12 -59 -25 -70 -30 -11 -5 -48
-21 -82 -35 -60 -24 -146 -61 -208 -90 -16 -8 -57 -26 -90 -40 -33 -15 -78
-35 -101 -46 -22 -10 -45 -19 -51 -19 -6 0 -24 -6 -40 -14 -26 -13 -47 -23
-135 -61 -18 -7 -53 -23 -77 -34 -24 -11 -48 -18 -52 -16 -3 3 -12 -2 -19 -10
-7 -8 -21 -15 -31 -15 -27 0 -55 -46 -39 -65 34 -41 74 -52 198 -59 68 -3 128
-9 134 -12 5 -3 85 -10 176 -15 92 -4 178 -11 192 -14 59 -13 161 -15 182 -4
13 7 68 53 124 103 55 50 123 110 150 133 27 23 62 53 78 67 16 14 33 23 38
20 4 -3 7 0 6 6 -2 6 7 18 19 27 19 13 21 13 19 -3 -3 -21 -45 -56 -57 -48 -5
3 -9 -1 -9 -8 0 -7 -16 -31 -35 -52 -19 -22 -35 -37 -35 -34 0 3 -31 -25 -70
-63 -38 -38 -71 -69 -74 -69 -5 0 -53 -47 -75 -73 -13 -16 124 -17 2008 -17
l2021 0 0 5000 0 5000 -215 0 c-207 0 -215 -1 -225 -21 -7 -11 -19 -28 -28
-38 -9 -10 -60 -76 -111 -147 -52 -71 -98 -131 -101 -134 -3 -3 -30 -39 -60
-80 -30 -41 -60 -82 -67 -90 -53 -66 -73 -94 -73 -104 0 -16 29 -56 41 -56 11
0 245 -95 273 -111 10 -6 35 -17 56 -24 33 -12 40 -11 68 7 18 11 32 26 32 34
0 8 11 31 24 52 12 20 26 47 30 60 4 12 12 22 17 22 5 0 9 6 9 13 0 13 2 16
68 140 23 42 61 112 84 155 53 99 111 191 121 192 4 0 7 -9 7 -21 0 -11 -4
-18 -9 -15 -10 7 -34 -20 -37 -41 -4 -26 -68 -143 -78 -143 -5 0 -6 -3 -3 -6
6 -6 -28 -79 -43 -94 -3 -3 -16 -27 -30 -55 -13 -27 -40 -75 -59 -105 -91
-145 -116 -231 -71 -245 10 -3 24 -13 32 -23 12 -15 11 -16 -4 -3 -10 7 -18
10 -18 6 0 -5 -8 -1 -18 7 -19 18 -69 15 -88 -4 -7 -7 -19 -35 -28 -61 -15
-46 -15 -50 5 -97 11 -26 19 -57 17 -67 -4 -22 -49 -45 -91 -47 -26 -1 -32 3
-37 29 -8 37 -31 75 -46 75 -6 0 -33 9 -60 21 -27 11 -60 25 -74 31 -14 5 -38
16 -53 24 -16 8 -35 14 -44 14 -8 0 -27 6 -41 14 -44 22 -115 53 -142 62 -37
11 -140 13 -185 4 -22 -5 -52 -11 -68 -14 -15 -2 -46 -18 -70 -34 -92 -63
-142 -97 -153 -107 -6 -5 -22 -17 -34 -25 -12 -8 -60 -43 -106 -77 -46 -35
-88 -63 -93 -63 -6 0 -14 -6 -18 -13 -4 -7 -25 -23 -45 -36 -21 -12 -38 -26
-38 -31 0 -4 -8 -11 -17 -14 -33 -12 -73 -37 -73 -45 0 -5 -7 -11 -15 -15 -9
-3 -15 0 -15 8 0 8 8 16 18 20 22 7 52 27 72 47 18 19 177 139 184 139 3 0 20
14 38 30 18 17 38 30 45 30 7 0 13 4 13 9 0 5 31 29 68 55 37 25 76 53 87 63
11 10 37 29 58 43 33 22 37 29 32 55 -3 16 -14 48 -25 70 -11 23 -20 45 -20
50 0 9 -32 80 -83 185 -20 40 -26 45 -56 46 -30 0 -119 -29 -216 -72 -17 -7
-41 -14 -55 -16 -14 -2 -35 -9 -47 -16 -12 -7 -28 -12 -36 -12 -8 0 -34 -9
-57 -19 -24 -10 -53 -18 -66 -16 -13 1 -21 -1 -19 -5 4 -7 -19 -16 -60 -25
-10 -2 -164 -52 -195 -63 -21 -7 -61 -10 -55 -4 3 3 13 7 22 8 10 2 26 7 38
13 59 29 116 51 132 51 11 0 23 4 28 8 6 5 42 19 80 31 81 26 87 28 97 30 4 1
23 8 43 17 19 8 35 12 35 9 0 -3 10 1 23 8 12 8 49 22 82 32 33 10 67 20 75
23 8 3 18 4 23 4 4 -1 7 2 7 7 0 6 17 11 37 13 35 3 38 6 44 41 3 21 11 43 18
50 18 18 13 51 -23 129 -45 98 -85 200 -92 238 l-7 30 -652 0 c-581 -1 -654
-2 -659 -16 -9 -25 -7 -27 10 -9 23 22 29 11 8 -14 -10 -11 -22 -17 -28 -14
-6 4 -7 2 -3 -3 8 -9 12 -10 38 -13 8 -1 7 -7 -2 -18 -12 -14 -10 -14 14 2 15
10 27 14 26 9 -4 -21 2 -26 19 -13 16 13 16 13 2 -5 -14 -18 -13 -19 4 -13 14
6 16 5 8 -5 -6 -7 -10 -17 -10 -21 0 -5 -4 -12 -8 -15 -4 -4 -4 -1 0 6 4 6 2
12 -3 12 -6 0 -10 5 -8 11 1 6 -4 14 -11 16 -11 4 -12 1 -3 -15 15 -28 14 -55
-1 -46 -10 6 -10 4 0 -8 11 -14 10 -16 -5 -14 -10 2 -17 6 -15 9 1 4 2 14 2
23 0 8 5 12 11 8 8 -4 7 0 -1 15 -9 18 -30 21 -30 5 0 -3 5 -2 11 2 8 4 9 -1
3 -17 -4 -13 -7 -30 -7 -36 0 -7 -5 -13 -10 -13 -5 0 -7 -9 -4 -20 3 -11 0
-23 -5 -27 -6 -3 -8 -1 -4 5 3 6 2 13 -3 16 -5 4 -8 -2 -6 -11 2 -10 4 -21 4
-25 1 -5 6 -8 12 -8 5 0 8 4 5 9 -3 5 1 12 10 15 13 5 14 9 5 20 -8 10 -9 16
-1 21 12 8 11 12 15 -57 2 -31 6 -62 10 -69 5 -7 3 -10 -6 -7 -8 3 -13 13 -11
23 2 10 -1 14 -7 10 -15 -9 -14 8 2 24 10 10 7 10 -15 2 -26 -10 -32 -7 -29
12 1 5 -3 6 -9 2 -8 -5 -8 -11 1 -21 6 -7 15 -12 19 -9 5 3 13 -8 18 -25 6
-17 7 -32 2 -35 -5 -3 -7 -14 -5 -25 2 -12 0 -18 -6 -14 -5 3 -8 22 -5 42 3
21 2 31 0 24 -3 -6 -10 -10 -15 -7 -5 4 -6 -2 -2 -11 5 -13 3 -15 -8 -9 -11 6
-12 5 -1 -6 16 -17 15 -26 -3 -26 -14 0 -19 10 -16 30 1 5 -3 6 -8 3 -5 -3 -7
-16 -4 -29 3 -16 2 -18 -5 -8 -7 9 -12 10 -16 2 -4 -6 -2 -11 3 -11 6 0 11 -5
11 -11 0 -5 -4 -7 -10 -4 -5 3 -10 1 -10 -5 0 -6 -6 -8 -12 -4 -7 4 -10 4 -6
-1 4 -4 2 -15 -5 -23 -10 -13 -9 -15 3 -8 8 4 7 1 -4 -8 -11 -9 -16 -22 -12
-31 4 -13 2 -14 -14 -5 -11 6 -20 15 -20 21 0 6 5 7 12 3 7 -4 8 -3 4 4 -4 7
-2 12 4 12 6 0 8 5 5 10 -4 6 -14 1 -24 -12 -16 -19 -16 -24 -4 -36 12 -12 12
-16 -4 -27 -10 -7 -29 -16 -42 -20 -19 -6 -21 -9 -10 -17 10 -7 8 -8 -8 -5
-15 3 -23 0 -23 -8 0 -7 8 -12 18 -10 9 1 11 0 5 -2 -7 -3 -13 -8 -13 -13 0
-5 -26 -14 -57 -21 -32 -7 -64 -19 -71 -28 -11 -14 -14 -14 -22 -1 -8 12 -10
11 -10 -7 0 -17 -4 -21 -16 -16 -10 4 -22 -1 -30 -12 -8 -11 -21 -16 -34 -12
-27 7 -26 -1 3 -13 21 -8 21 -9 -6 -9 -16 -1 -26 -5 -22 -10 3 -5 1 -12 -4
-15 -5 -4 -12 2 -14 11 -3 13 -5 12 -6 -5 0 -13 -5 -20 -11 -17 -6 4 -8 12 -4
18 3 7 -6 -1 -21 -18 -15 -17 -24 -23 -21 -13 3 12 1 15 -9 11 -12 -4 -12 -10
-4 -26 10 -18 9 -20 -2 -9 -15 14 -33 16 -24 3 3 -5 0 -13 -6 -17 -8 -5 -9 -3
-4 6 6 10 4 12 -8 7 -19 -7 -22 4 -7 19 7 7 6 11 -5 11 -15 0 -18 -6 -18 -40
0 -11 -3 -14 -11 -9 -16 14 -43 11 -43 -5 0 -9 4 -10 12 -3 9 7 17 5 26 -7 13
-16 12 -17 -3 -4 -15 11 -19 11 -24 -3 -5 -13 -9 -13 -25 7 -12 14 -18 17 -17
7 2 -8 -3 -14 -9 -13 -7 2 -13 -3 -13 -10 0 -9 -2 -9 -9 1 -6 10 -11 9 -22 -4
-12 -16 -12 -17 1 -9 13 8 13 7 0 -11 -22 -29 -24 -30 -17 -12 3 10 2 20 -3
23 -6 4 -10 -1 -10 -10 0 -9 -4 -13 -10 -10 -5 3 -10 -2 -11 -12 -1 -13 -3
-11 -9 7 -4 14 -8 20 -9 13 -1 -6 -10 -10 -21 -8 -12 2 -18 0 -14 -6 4 -7 -5
-9 -24 -6 -35 6 -43 1 -35 -20 5 -12 7 -12 14 -1 7 10 9 10 9 -2 0 -13 1 -13
11 0 9 13 10 13 6 0 -2 -8 -13 -16 -25 -16 -12 -1 -23 -2 -24 -4 -6 -4 -45
-11 -73 -13 -16 -1 -34 -6 -38 -12 -5 -6 -7 -4 -5 5 3 8 15 15 29 16 68 6 77
9 71 22 -3 10 -7 11 -12 2 -4 -6 -16 -10 -26 -9 -11 2 -25 0 -31 -4 -7 -5 -13
-5 -13 -1 0 3 -8 0 -17 -7 -15 -13 -16 -12 -11 9 4 12 2 20 -3 16 -5 -3 -9
-12 -9 -20 0 -8 -4 -14 -10 -14 -5 0 -10 -5 -10 -11 0 -8 5 -8 15 1 19 16 19
3 0 -16 -12 -12 -15 -12 -15 -2 -1 7 -10 2 -22 -12 l-21 -25 6 40 5 40 -18
-40 -18 -40 -7 33 c-8 36 -20 48 -31 31 -4 -7 -3 -9 3 -6 13 8 23 -37 12 -55
-7 -10 -9 -10 -10 2 -1 8 -1 19 0 23 1 5 -3 6 -8 2 -6 -3 -7 -13 -4 -22 4 -11
3 -14 -5 -9 -7 4 -12 3 -12 -3 0 -5 -12 -11 -27 -13 -17 -2 -27 -8 -25 -16 1
-8 -2 -11 -8 -7 -6 4 -9 13 -6 21 9 24 -2 16 -19 -13 -9 -16 -14 -21 -12 -12
3 9 -1 16 -8 16 -7 0 -11 -6 -8 -14 4 -9 0 -11 -11 -7 -10 4 -16 1 -17 -7 0
-8 -4 -5 -9 6 -7 16 -9 17 -9 3 -1 -9 -5 -20 -11 -23 -6 -4 -7 1 -3 12 6 16 5
16 -10 4 -9 -7 -17 -10 -17 -5 0 4 -7 -1 -15 -12 -8 -10 -15 -14 -14 -9 3 22
-2 26 -16 11 -9 -8 -23 -12 -32 -9 -9 4 -14 2 -10 -3 3 -5 -3 -10 -13 -10 -10
0 -16 4 -14 8 3 4 -2 5 -10 2 -9 -3 -14 -10 -13 -16 1 -6 -6 -12 -16 -13 -10
-2 -14 1 -10 8 4 6 0 8 -10 4 -9 -3 -18 -1 -21 6 -2 7 -5 3 -6 -8 l-1 -20 -9
20 -9 20 0 -20 c-1 -17 -3 -17 -11 -5 -8 12 -10 12 -11 -5 0 -11 -3 -14 -6 -7
-4 10 -8 10 -21 0 -12 -10 -14 -10 -8 0 4 6 2 12 -3 12 -6 0 -11 -4 -11 -9 0
-5 -9 -7 -20 -4 -15 4 -20 0 -20 -13 0 -12 -3 -15 -8 -8 -8 13 -50 13 -71 0
-10 -7 -12 -5 -7 5 4 8 1 6 -7 -4 -11 -14 -16 -15 -20 -5 -4 10 -6 10 -6 1 -1
-7 -6 -13 -12 -13 -5 0 -7 6 -3 13 6 9 5 9 -8 0 -8 -7 -17 -10 -20 -7 -3 3
-15 -6 -26 -20 -21 -27 -38 -35 -27 -13 4 6 -2 2 -13 -10 -11 -12 -23 -19 -28
-15 -5 4 -3 0 4 -9 11 -14 10 -17 -4 -15 -18 1 -38 -48 -29 -71 2 -7 -1 -12
-8 -10 -7 1 -11 -4 -9 -11 2 -9 -2 -11 -10 -6 -23 15 -50 15 -42 2 6 -10 5
-10 -8 -1 -8 7 -19 9 -23 5 -5 -4 -5 -1 -1 6 4 7 11 10 16 7 5 -3 11 -1 15 4
8 13 -33 5 -51 -10 -12 -10 -13 -9 -8 6 6 15 4 16 -14 6 -15 -8 -23 -8 -28 0
-4 8 -9 7 -15 -2 -7 -11 -9 -9 -9 6 0 15 -2 17 -9 6 -7 -11 -9 -11 -14 0 -4 9
-6 7 -7 -6 l-1 -20 -9 20 c-7 16 -9 17 -9 3 -1 -9 -5 -19 -10 -22 -5 -4 -7 4
-4 16 4 19 3 20 -6 8 -10 -13 -11 -13 -11 0 0 9 -3 11 -8 5 -9 -12 -92 -13
-92 -1 0 5 -6 3 -14 -3 -11 -9 -16 -9 -21 0 -6 8 -10 7 -16 -2 -7 -11 -9 -11
-9 -1 0 7 -5 10 -10 7 -6 -4 -8 -10 -5 -15 3 -5 1 -11 -4 -14 -4 -3 -8 4 -7
17 1 24 6 23 -102 14 -23 -2 -45 -1 -47 3 -2 4 14 6 36 5 22 -1 42 1 44 5 2 3
-13 6 -33 5 -20 -1 -40 4 -44 9 -5 8 -8 7 -8 -1 0 -6 -9 -10 -20 -8 -13 3 -18
0 -14 -7 4 -7 3 -8 -4 -4 -7 4 -12 1 -12 -6 0 -9 -3 -9 -10 2 -5 8 -10 20 -10
25 0 6 4 4 9 -3 6 -11 10 -10 15 4 4 10 4 15 0 11 -4 -4 -14 -1 -22 6 -13 9
-14 9 -8 0 4 -7 3 -13 -3 -13 -5 0 -8 -10 -6 -21 3 -12 1 -18 -3 -15 -4 4 -8
12 -8 17 -1 5 -2 12 -3 16 0 4 -8 -2 -16 -13 -15 -19 -15 -19 -8 1 l6 20 -23
-20 c-13 -11 -20 -15 -17 -8 4 6 3 14 -3 18 -5 3 -10 1 -10 -6 0 -7 -3 -9 -6
-6 -4 4 -2 12 4 19 14 18 19 43 8 45 -5 1 -12 7 -16 13 -5 8 -9 7 -13 -5 -4
-9 -3 -13 2 -10 18 10 23 -17 7 -31 -9 -8 -11 -9 -6 -2 19 23 10 31 -12 12
-16 -13 -19 -14 -10 -2 9 11 10 18 2 23 -5 3 -10 12 -10 18 0 7 4 6 10 -3 5
-8 10 -10 10 -4 0 15 -21 31 -37 28 -7 -1 -24 -2 -38 -3 -14 0 -25 -6 -25 -12
0 -5 5 -7 12 -3 7 5 8 3 3 -6 -6 -10 -11 -9 -22 5 -7 11 -13 13 -13 6 0 -7 -4
-9 -10 -6 -6 3 -7 -1 -4 -9 3 -9 11 -13 17 -9 6 4 7 1 3 -6 -6 -9 -13 -8 -29
6 -11 10 -17 13 -14 7 11 -19 -18 -37 -32 -20 -7 8 -20 13 -29 11 -9 -1 -23 3
-31 9 -11 8 -13 8 -8 -1 4 -6 3 -14 -2 -17 -5 -3 -12 1 -15 9 -4 12 -11 13
-23 7 -10 -5 -31 -7 -46 -5 -20 3 -27 0 -22 -7 8 -13 -35 9 -48 25 -5 6 -6 2
-3 -9 7 -20 -11 -49 -24 -41 -5 3 -11 1 -14 -4 -15 -23 16 -20 40 4 15 15 24
20 21 11 -3 -8 -2 -18 4 -21 5 -4 6 -12 2 -18 -4 -7 -8 -19 -10 -27 -1 -11 2
-10 12 4 13 18 14 18 12 -2 0 -11 -4 -20 -7 -20 -25 2 -30 -3 -18 -16 9 -10
15 -11 20 -2 7 10 12 -5 9 -26 0 -4 6 -5 14 -2 8 4 15 1 15 -5 0 -8 4 -8 14 1
8 7 11 17 8 22 -3 5 0 6 6 3 5 -4 9 -18 8 -31 -3 -22 -1 -24 22 -15 23 9 24 8
11 -8 -11 -13 -11 -15 -1 -9 9 5 15 1 19 -15 6 -22 7 -22 14 -3 7 17 8 16 9
-6 2 -14 2 -29 1 -33 -1 -5 3 -6 8 -2 6 3 8 13 5 23 -4 12 -2 11 7 -3 7 -11
14 -33 16 -50 2 -22 0 -26 -7 -15 -6 9 -10 10 -10 3 0 -7 8 -17 18 -22 9 -6
12 -11 6 -11 -7 0 -10 -13 -9 -30 1 -16 -2 -30 -7 -30 -6 0 -5 -7 2 -15 11
-13 10 -14 -5 -9 -13 5 -16 4 -11 -4 4 -7 2 -12 -3 -12 -6 0 -11 -7 -11 -16 0
-8 -4 -12 -10 -9 -5 3 -10 1 -10 -5 0 -6 -4 -8 -10 -5 -5 3 -10 2 -10 -3 0
-14 -88 -6 -107 9 -15 12 -16 12 -9 -1 4 -8 0 -6 -9 5 -9 11 -21 19 -26 17 -5
-1 -8 4 -7 10 2 7 -3 12 -10 10 -8 -1 -11 2 -8 7 3 5 -1 11 -9 15 -8 3 -15 11
-15 18 0 9 3 8 10 -2 6 -9 10 -10 10 -3 0 6 -5 15 -10 18 -6 4 -8 11 -5 16 4
5 2 9 -4 9 -5 0 -8 8 -6 18 1 9 -2 26 -8 37 -10 19 -9 19 9 5 18 -15 18 -14 1
12 -11 17 -13 29 -6 33 7 5 7 11 -1 20 -6 7 -8 24 -5 37 3 12 7 41 10 63 7 60
10 72 23 88 9 10 10 17 2 22 -6 3 -8 10 -5 15 3 5 0 12 -7 16 -7 4 -10 4 -6
-1 4 -4 3 -14 -2 -21 -6 -6 -10 -16 -9 -20 4 -25 -2 -74 -9 -70 -5 3 -7 23 -5
45 1 22 -1 42 -6 45 -5 4 -7 -3 -4 -14 6 -22 -15 -25 -29 -5 -12 15 -10 -7 2
-25 7 -11 10 -11 10 -2 0 7 5 10 11 6 6 -3 8 -17 5 -30 -4 -13 -2 -24 3 -24
12 0 21 -39 10 -45 -4 -3 -6 -13 -3 -23 5 -14 4 -14 -4 -2 -8 10 -8 18 0 27 8
10 2 21 -23 46 -19 18 -30 29 -25 25 14 -11 36 -10 36 3 0 5 -5 7 -10 4 -6 -3
-13 0 -16 9 -3 8 -14 13 -24 11 -13 -3 -17 1 -13 12 5 12 7 12 14 1 5 -7 9 -8
9 -2 0 19 -13 24 -28 11 -13 -10 -15 -9 -9 5 3 10 1 20 -5 24 -6 4 -8 3 -5 -3
4 -6 0 -13 -8 -17 -8 -3 -17 -1 -20 5 -4 5 -12 6 -18 3 -7 -4 -9 -4 -5 1 4 4
0 14 -10 21 -9 7 -18 17 -18 23 -4 32 -6 34 -14 16 -7 -16 -9 -17 -9 -3 -1 9
-11 18 -23 20 -13 2 -24 9 -24 16 -1 6 -2 13 -3 15 -3 2 -8 30 -14 64 -2 12
-6 25 -10 29 -3 4 -5 -3 -2 -14 2 -12 0 -24 -4 -26 -10 -7 -8 35 3 53 6 9 5
12 0 8 -6 -3 -16 3 -23 15 -9 15 -10 18 0 13 8 -6 10 -4 5 4 -5 7 -13 10 -20
8 -6 -3 -17 2 -24 9 -10 11 -10 14 0 15 7 0 2 5 -11 10 -15 6 -21 14 -17 25 3
9 2 12 -5 8 -22 -13 -73 69 -65 106 6 30 18 50 27 44 5 -3 9 2 9 11 0 11 5 15
15 12 8 -4 17 -1 21 5 5 7 2 8 -7 3 -8 -5 -11 -4 -6 0 11 13 47 13 48 1 0 -6
4 -2 9 9 5 11 9 14 9 7 1 -7 6 -10 12 -6 6 3 15 0 20 -7 7 -12 9 -12 9 0 0 11
3 11 17 0 11 -10 14 -10 9 -1 -9 16 6 16 23 0 11 -11 12 -10 6 0 -5 9 -1 12
11 10 11 -2 18 2 16 10 -1 6 2 12 7 12 5 0 12 -6 15 -12 3 -7 3 -2 0 12 -4 14
-11 30 -16 35 -6 6 -7 3 -3 -10 5 -16 5 -17 -3 -5 -7 9 -8 18 -1 26 7 8 7 14
0 18 -6 4 -7 14 -4 22 8 22 23 -2 17 -29 -2 -11 0 -16 4 -13 4 4 7 11 7 14 0
4 4 13 9 21 6 10 5 12 -2 7 -7 -4 -12 -1 -12 8 0 10 -9 16 -22 17 -17 1 -19 2
-6 6 16 4 16 6 3 20 -9 8 -13 18 -10 21 3 4 10 0 15 -8 7 -11 10 -11 10 -2 0
7 -7 15 -15 18 -8 4 -15 13 -15 21 0 8 -4 12 -8 9 -5 -3 -7 23 -6 57 2 34 -2
67 -8 75 -9 10 -8 12 1 10 13 -3 21 17 24 59 0 12 5 19 9 17 5 -3 6 -10 3 -15
-4 -5 -2 -9 4 -9 5 0 12 -8 14 -17 2 -10 4 -6 3 8 -1 14 3 26 9 26 6 0 10 -17
9 -39 0 -21 2 -41 6 -43 5 -3 6 12 4 32 -2 24 0 33 7 26 5 -5 11 -19 12 -31 0
-11 5 -18 9 -16 5 3 12 -5 17 -18 7 -15 10 -18 10 -7 1 19 19 28 39 22 10 -4
10 -8 0 -21 -12 -15 -11 -16 4 -4 10 8 20 23 24 34 6 19 6 19 19 1 7 -10 11
-22 7 -27 -3 -5 -8 -1 -12 9 -6 18 -7 18 -12 -2 -3 -12 -1 -20 6 -19 20 3 36
17 30 27 -3 5 -1 16 6 24 8 10 8 15 -1 21 -7 4 -9 3 -5 -4 3 -6 2 -13 -3 -16
-5 -4 -8 1 -7 9 3 23 14 29 31 15 12 -10 13 -16 3 -29 -12 -14 -11 -14 5 -2
16 13 16 15 2 31 -14 15 -14 19 0 30 11 9 12 17 4 31 -5 11 -14 17 -18 15 -4
-3 -8 1 -8 9 0 11 4 12 14 4 15 -13 18 2 2 18 -7 7 -4 10 11 9 11 0 25 -8 30
-16 8 -11 9 -9 6 10 -2 16 -9 24 -19 22 -8 -1 -18 2 -21 7 -3 5 2 8 12 7 10 0
16 6 16 17 -2 24 5 21 16 -5 8 -20 9 -21 9 -4 1 11 13 33 29 49 15 17 21 27
15 23 -17 -10 -16 2 1 20 11 11 16 11 19 1 4 -9 6 -9 6 1 1 7 5 11 10 7 5 -3
12 -1 16 5 4 7 -2116 10 -6484 10 l-6491 0 0 -5000z m15854 3951 c16 -17 21
-34 21 -75 l0 -54 -40 -8 c-22 -4 -46 -8 -54 -10 -8 -1 -27 4 -42 12 -21 10
-30 25 -36 56 -5 24 -5 45 -1 46 4 2 8 9 8 15 0 46 103 59 144 18z m-10660
-666 c39 -26 56 -60 56 -114 0 -42 -5 -55 -33 -84 -32 -34 -91 -59 -125 -52
-67 13 -136 97 -125 153 3 15 6 33 7 41 4 20 41 56 76 73 36 17 104 9 144 -17z
m-1698 -395 c16 -13 17 -13 9 0 -5 9 0 8 13 -4 12 -11 22 -16 22 -12 0 4 22
-15 49 -41 82 -80 104 -198 57 -298 -43 -93 -133 -150 -225 -142 -49 4 -91 11
-98 17 -2 2 -7 3 -13 4 -5 0 -32 22 -60 49 -39 37 -53 60 -69 110 -10 34 -17
73 -16 87 7 54 16 94 25 110 5 10 6 21 2 25 -4 5 -2 5 5 1 7 -3 14 2 18 14 3
11 11 20 16 20 5 0 9 7 9 16 0 8 5 12 10 9 6 -3 10 0 10 8 0 7 6 14 13 15 42
3 57 7 57 15 0 4 5 5 10 2 6 -3 10 -2 10 3 0 16 125 9 146 -8z m2135 -154 c62
-9 81 -20 122 -65 12 -13 27 -29 33 -35 6 -6 19 -32 29 -58 44 -118 -28 -256
-158 -300 -17 -6 -43 -20 -56 -30 -27 -20 -76 -88 -65 -88 4 0 -2 -10 -14 -23
-24 -26 -68 -33 -90 -15 -13 10 -14 10 -8 1 4 -7 5 -13 2 -13 -3 0 -12 13 -21
30 -16 32 -20 90 -6 90 17 0 8 111 -14 173 -28 77 -27 155 3 214 28 55 96 109
146 117 22 4 42 9 44 11 3 2 8 3 11 1 3 -2 22 -7 42 -10z m-1002 -350 c19 -1
36 -7 39 -14 2 -7 10 -12 17 -12 8 0 17 -9 20 -20 4 -12 11 -17 18 -14 7 4 9
4 5 -1 -4 -4 -3 -14 3 -22 6 -7 9 -13 6 -13 -3 0 3 -23 14 -52 12 -32 16 -63
12 -82 -3 -17 -6 -39 -7 -48 0 -9 -3 -15 -7 -12 -4 2 -10 -8 -13 -21 -4 -14
-11 -23 -16 -20 -6 3 -10 -1 -10 -9 0 -8 -5 -18 -12 -22 -7 -5 -8 -3 -3 6 5 8
-6 4 -23 -9 -17 -12 -41 -24 -52 -27 -11 -2 -30 -6 -42 -9 -12 -2 -33 2 -46
11 -14 9 -21 11 -18 5 12 -19 -2 -12 -27 13 -14 14 -28 22 -33 18 -4 -4 -4 1
-1 11 4 10 3 16 -1 13 -8 -5 -15 2 -50 46 -14 18 -33 128 -22 128 4 0 7 6 7
13 0 31 38 86 79 116 25 17 43 27 39 22 -3 -6 6 -4 21 4 14 7 36 11 48 8 11
-3 36 -6 55 -7z m10704 -383 c48 -39 26 -99 -46 -127 -25 -9 -52 -27 -61 -40
-17 -26 -59 -39 -75 -23 -6 6 -11 7 -11 2 -1 -6 -7 4 -14 20 -9 20 -10 34 -3
43 5 6 6 12 2 12 -4 0 8 17 28 39 19 21 36 42 38 47 17 40 106 56 142 27z
m-9399 -135 c4 6 13 9 21 6 8 -4 12 -11 8 -18 -4 -6 0 -6 9 2 12 9 18 10 23 2
4 -6 12 -7 18 -2 18 13 33 9 53 -13 11 -12 15 -14 9 -5 -8 13 -8 13 6 3 9 -7
18 -10 22 -7 3 3 3 -5 0 -18 -4 -18 -3 -20 6 -8 7 10 11 11 11 3 0 -7 6 -10
14 -7 15 6 40 -29 29 -39 -3 -4 4 -5 15 -2 12 2 25 -1 28 -7 5 -7 2 -8 -7 -4
-8 4 -6 1 3 -7 10 -8 15 -16 12 -19 -2 -3 5 -5 18 -4 14 1 27 -7 34 -22 8 -17
13 -20 18 -10 3 7 4 3 2 -10 -4 -19 -2 -21 10 -11 8 7 14 8 13 3 -4 -15 13
-44 22 -39 4 3 6 -4 4 -15 -2 -11 0 -18 6 -15 5 4 10 -1 10 -9 1 -9 2 -26 3
-38 1 -13 8 -22 15 -20 8 1 11 -6 9 -20 -2 -16 2 -22 13 -20 9 1 16 -4 16 -13
0 -8 -5 -11 -11 -8 -8 5 -8 3 0 -8 5 -8 10 -21 9 -29 0 -8 4 -18 10 -22 6 -5
4 -8 -5 -8 -13 0 -13 -1 0 -10 9 -6 10 -10 3 -10 -13 0 -8 -47 8 -66 5 -6 5
-15 1 -19 -4 -5 -1 -5 6 -1 10 6 10 11 1 22 -6 8 -9 17 -5 21 3 3 6 1 6 -6 0
-7 4 -10 9 -7 5 3 8 -7 7 -24 -2 -23 1 -27 11 -18 11 8 12 7 7 -7 -6 -14 -4
-16 7 -10 11 7 11 5 -1 -10 -12 -15 -12 -17 -1 -10 11 6 13 4 8 -8 -4 -10 0
-20 11 -26 14 -8 15 -12 3 -23 -12 -11 -13 -11 -6 1 5 9 4 12 -3 8 -14 -9 -10
-31 11 -51 9 -10 14 -22 11 -28 -4 -7 -2 -8 4 -4 6 4 9 14 6 24 -2 9 1 7 7 -5
7 -13 16 -23 21 -23 5 0 6 5 2 12 -5 7 -3 8 5 4 7 -5 17 -19 22 -33 8 -21 12
-23 24 -13 12 10 15 9 15 -6 0 -16 2 -17 10 -4 9 13 12 12 26 -5 8 -11 13 -28
10 -38 -4 -16 -2 -16 12 -5 9 8 13 8 9 1 -9 -14 2 -45 14 -37 8 5 13 -9 10
-28 0 -5 5 -8 13 -8 10 0 13 -7 11 -21 -4 -18 -2 -19 12 -7 12 9 15 9 9 1 -4
-7 -3 -13 2 -13 6 0 13 -7 16 -16 6 -15 4 -15 -11 -3 -12 9 -10 4 5 -15 12
-15 19 -32 16 -37 -3 -5 -1 -9 5 -9 5 0 8 -9 6 -20 -2 -11 1 -20 6 -20 6 0 7
-4 4 -10 -3 -5 -1 -10 4 -10 6 0 11 -5 11 -11 0 -5 -6 -7 -12 -3 -10 6 -10 5
-1 -7 6 -8 15 -28 18 -44 10 -44 12 -145 4 -145 -4 0 -6 -9 -4 -20 2 -11 1
-20 -3 -20 -4 0 -8 -10 -9 -22 -1 -13 -11 -29 -23 -37 -11 -7 -20 -19 -20 -27
0 -7 -5 -16 -12 -20 -7 -5 -9 -2 -4 7 4 8 -2 3 -13 -11 -11 -14 -21 -21 -21
-16 0 5 -9 -1 -19 -13 -14 -16 -21 -18 -24 -9 -3 7 -6 4 -6 -7 -1 -17 -3 -17
-11 -5 -8 13 -10 13 -10 -1 0 -9 -9 -19 -20 -22 -12 -3 -17 -1 -14 5 3 5 -3 4
-14 -3 -12 -7 -18 -18 -15 -24 4 -5 3 -7 -2 -3 -4 4 -15 2 -23 -5 -13 -10 -14
-9 -7 2 6 11 5 12 -6 5 -27 -17 -144 -20 -201 -6 -20 5 -40 7 -44 3 -4 -3 -4
0 0 7 6 11 -11 17 -36 13 -5 0 -8 4 -8 10 0 5 -4 8 -9 5 -5 -3 -11 1 -15 9 -3
8 -13 15 -21 15 -9 0 -13 5 -10 10 3 6 -3 10 -15 10 -12 0 -19 4 -16 9 4 5 3
11 -1 13 -12 5 -66 91 -66 105 0 7 -4 13 -9 13 -5 0 -6 5 -3 10 3 6 0 10 -7
11 -10 0 -11 2 0 6 9 4 7 10 -7 22 -12 10 -18 21 -14 25 3 3 1 6 -6 6 -7 0 -9
5 -6 10 3 6 1 10 -5 10 -6 0 -8 5 -5 10 3 6 1 10 -5 10 -6 0 -9 4 -5 9 3 5 0
13 -6 16 -5 4 -8 13 -6 19 3 7 -8 21 -24 30 -16 9 -29 25 -30 34 0 14 -2 13
-9 -3 -8 -18 -9 -19 -9 -1 -1 11 -6 16 -15 13 -8 -3 -19 0 -25 7 -8 9 -7 13 4
13 8 0 12 -4 10 -8 -3 -4 5 -4 17 -1 19 5 20 7 5 10 -10 2 -14 8 -10 15 5 9 3
9 -8 0 -8 -6 -18 -11 -23 -10 -5 1 -10 -6 -12 -16 -4 -29 -14 -33 -15 -6 0 22
-1 23 -9 4 -5 -11 -9 -17 -11 -12 -1 4 -3 12 -4 17 -1 6 -3 12 -4 14 0 2 -19
0 -41 -4 -36 -7 -39 -6 -28 9 7 9 9 13 4 9 -4 -3 -21 -2 -37 2 -22 7 -28 6
-22 -3 5 -9 3 -9 -8 -1 -8 7 -40 10 -79 8 -166 -10 -220 -11 -220 -1 0 5 -8 3
-17 -4 -12 -10 -15 -11 -9 -1 6 9 1 11 -18 8 -14 -3 -26 -1 -26 3 0 5 -11 7
-25 6 -14 -2 -25 2 -25 8 0 8 -3 7 -9 -1 -6 -11 -10 -10 -15 3 -4 10 -12 15
-22 11 -8 -3 -13 -2 -10 3 3 5 -2 15 -11 22 -14 12 -16 12 -9 -1 4 -8 0 -6 -8
4 -22 27 -39 28 -68 2 -13 -11 -17 -16 -9 -11 10 7 10 2 -3 -17 -16 -25 -36
-42 -21 -19 3 5 0 13 -6 17 -7 4 -10 3 -7 -2 4 -5 0 -22 -8 -39 -8 -16 -12
-22 -9 -12 4 15 1 16 -15 7 -11 -6 -20 -13 -20 -16 0 -3 5 -2 12 2 6 4 8 3 4
-4 -3 -6 -17 -9 -31 -6 -13 2 -27 -1 -31 -7 -5 -8 -3 -9 6 -4 9 6 11 4 6 -4
-6 -9 -12 -9 -25 3 -13 12 -18 13 -18 4 -4 -56 -8 -67 -20 -56 -10 8 -13 7
-14 -3 0 -10 -2 -10 -5 -2 -3 7 -11 11 -17 9 -7 -1 -9 -1 -4 1 4 3 7 12 7 21
0 15 -2 15 -11 2 -9 -13 -10 -13 -6 0 2 8 0 23 -4 32 -6 10 -5 19 1 23 5 3 7
13 4 23 -5 14 -4 15 5 2 9 -13 15 -8 13 12 -1 3 6 12 15 20 9 7 14 8 10 2 -3
-6 0 -11 7 -11 8 0 12 7 8 15 -4 11 -1 13 7 7 10 -6 11 -3 2 12 -6 11 -7 23
-4 27 3 3 1 6 -6 6 -8 0 -10 -8 -6 -22 5 -22 5 -22 -9 1 -16 28 -10 63 6 39 7
-9 8 -4 3 15 -3 18 -2 26 4 23 6 -4 7 5 1 25 -8 28 -7 29 7 17 15 -12 15 -11
5 8 -13 24 -7 35 13 28 7 -3 16 0 21 7 5 8 3 10 -6 4 -8 -5 -11 -4 -6 3 4 6
14 8 23 5 12 -5 14 -3 8 8 -4 8 -4 11 0 6 5 -4 18 1 29 10 18 15 19 16 8 1
-11 -14 -11 -16 6 -11 15 3 18 12 16 36 -3 24 -1 28 6 17 9 -14 14 -7 11 13
-1 5 3 6 8 3 5 -3 12 1 15 10 3 8 10 12 16 9 5 -3 10 0 10 7 0 8 3 9 8 3 4 -5
15 -11 24 -13 13 -2 16 2 12 15 -5 15 -4 16 5 3 6 -8 11 -11 11 -6 0 5 7 3 15
-4 9 -7 14 -19 11 -27 -4 -8 -1 -11 5 -7 6 3 9 15 6 25 -3 10 -1 22 4 25 5 3
9 2 8 -3 -1 -4 0 -19 1 -33 2 -21 4 -19 9 10 4 22 12 34 20 32 8 -2 11 3 8 12
-3 8 3 22 13 31 19 17 20 17 30 -6 10 -23 10 -22 6 6 -4 26 -3 27 9 12 11 -15
12 -14 11 12 -1 22 -4 27 -14 19 -9 -8 -11 -7 -6 6 3 9 11 16 18 16 6 0 3 5
-6 11 -10 5 -18 15 -18 22 0 7 4 6 10 -3 8 -13 10 -12 10 3 0 12 4 16 13 11 9
-6 9 -4 -1 8 -10 13 -10 18 -1 24 8 5 9 3 4 -6 -5 -9 -4 -11 3 -6 9 5 9 12 0
25 -9 15 -6 25 17 55 15 20 31 36 36 36 5 0 9 12 9 26 0 17 4 23 13 18 10 -6
10 -4 0 7 -7 7 -13 18 -13 24 0 5 5 3 10 -5 6 -10 10 -11 10 -2 0 6 6 11 13
10 6 -2 11 3 9 11 -2 9 3 11 14 7 13 -5 15 -4 5 7 -9 11 -7 17 6 28 16 12 17
12 8 -1 -6 -10 -4 -9 6 2 9 9 20 14 23 10 4 -3 4 2 0 12 -5 14 -9 15 -15 4 -5
-8 -9 -9 -9 -2 0 6 7 17 15 24 8 7 15 9 15 4 0 -5 5 -2 10 6 5 8 14 16 20 16
5 1 12 3 15 4 3 1 11 3 18 4 6 0 12 8 12 16 1 8 7 14 14 12 9 -2 11 3 7 14 -6
15 -4 15 11 3 14 -12 16 -12 8 0 -6 11 -3 13 14 8 19 -5 20 -3 9 11 -10 12
-10 14 0 8 7 -4 12 -2 13 6 0 11 2 11 6 0 4 -10 9 -9 20 5 9 11 12 12 8 3 -4
-8 2 -5 13 7 11 12 22 19 26 16 3 -4 6 -1 6 5 0 7 3 11 8 10 4 -1 20 4 35 10
16 7 35 12 43 12 10 0 12 5 8 13 -5 7 0 6 11 -3 10 -8 16 -10 12 -3 -9 14 25
23 34 10 4 -5 9 -5 13 1z m11868 -65 c37 -33 18 -98 -35 -117 -17 -5 -76 20
-78 34 0 3 -1 26 -2 53 l-3 47 50 0 c32 0 56 -6 68 -17z m-1232 -460 c32 -9
35 -12 32 -44 -4 -56 -55 -84 -105 -58 -30 16 -37 28 -37 67 0 43 37 78 60 57
8 -7 31 -17 50 -22z m2013 -257 c27 -12 23 -81 -6 -110 -30 -30 -79 -24 -107
12 -27 33 -25 58 5 88 26 26 64 29 108 10z m-10695 -877 c12 -8 22 -20 22 -27
0 -7 4 -11 9 -7 6 3 8 -3 6 -15 -2 -11 1 -22 6 -26 6 -4 3 -14 -8 -27 -10 -11
-12 -17 -5 -13 11 7 12 4 3 -11 -6 -11 -7 -24 -3 -28 4 -5 1 -5 -6 -1 -7 4 -9
12 -6 18 5 7 2 8 -5 4 -7 -5 -10 -15 -6 -23 4 -13 3 -14 -9 -4 -9 8 -16 8 -20
2 -8 -12 -43 -6 -64 11 -13 11 -15 11 -8 -2 4 -8 -2 -4 -13 10 -12 14 -24 36
-27 48 -5 18 -9 21 -16 10 -6 -9 -7 -4 -5 14 1 15 7 31 12 35 4 4 5 3 1 -4 -3
-6 -2 -14 3 -17 11 -7 9 13 -3 33 -6 9 -5 12 1 8 6 -4 14 0 17 9 3 8 9 13 14
10 4 -2 14 -1 21 3 18 12 63 6 89 -10z m6365 -710 c23 -10 47 -46 47 -70 0 -5
-9 -29 -21 -53 -16 -35 -25 -44 -41 -41 -27 6 -74 -19 -111 -59 -16 -17 -27
-26 -24 -20 7 12 -103 67 -125 62 -7 -1 -25 1 -41 5 -22 6 -25 10 -15 21 7 8
21 12 31 10 10 -1 16 0 13 4 -6 10 93 82 113 82 10 0 32 16 51 35 36 38 76 45
123 24z m305 -77 c12 -7 22 -20 22 -28 0 -8 3 -13 8 -11 4 3 7 -19 8 -48 0
-51 -1 -53 -28 -57 -16 -3 -37 2 -48 9 -18 12 -19 12 -14 -4 3 -10 -3 -4 -15
12 -15 22 -19 38 -15 60 3 17 7 40 8 52 0 11 4 19 9 16 4 -2 7 0 7 5 0 12 30
9 58 -6z m-1998 -41 c43 -28 89 -85 90 -111 1 -18 16 -37 60 -70 32 -25 125
-96 205 -159 l147 -113 36 15 c21 8 44 18 52 21 8 3 22 10 30 15 23 13 113 54
225 101 55 22 123 53 150 67 108 57 140 71 147 67 3 -2 9 0 13 6 4 6 11 8 16
5 5 -4 9 -1 9 5 0 7 7 10 15 7 8 -4 17 -2 20 4 4 5 11 7 16 4 5 -4 9 -1 9 4 0
6 8 11 18 11 9 0 -5 -14 -33 -32 -89 -56 -132 -77 -166 -83 -19 -3 -35 -10
-37 -16 -2 -5 -9 -9 -15 -9 -7 0 -25 -7 -41 -15 -15 -8 -32 -13 -36 -10 -5 3
-12 0 -15 -6 -4 -6 -26 -19 -49 -29 -98 -42 -163 -72 -188 -85 -14 -8 -33 -15
-41 -15 -8 0 -20 -7 -27 -15 -7 -8 -20 -15 -30 -15 -9 0 -29 -9 -43 -20 -24
-19 -25 -25 -26 -123 -1 -58 -5 -117 -10 -134 -5 -16 -9 -80 -10 -141 -2 -125
-4 -122 89 -193 25 -18 65 -52 90 -76 25 -23 55 -50 66 -60 76 -64 122 -104
144 -123 14 -12 47 -40 75 -63 27 -23 65 -56 85 -73 19 -17 50 -44 69 -60 18
-16 49 -44 68 -61 18 -18 37 -33 41 -33 4 0 30 -21 59 -47 55 -51 137 -122
186 -163 17 -14 38 -32 47 -40 8 -8 44 -40 80 -70 107 -91 113 -97 102 -104
-6 -3 -16 -1 -24 6 -7 7 -43 38 -78 68 -36 30 -69 60 -75 66 -5 6 -32 28 -60
50 -65 51 -94 76 -114 95 -31 30 -227 196 -281 238 -30 24 -78 64 -105 90 -28
25 -73 64 -100 86 -28 21 -63 52 -80 68 -16 16 -73 63 -125 105 -52 43 -107
89 -121 104 -28 27 -69 34 -69 11 0 -7 -9 -30 -20 -50 -11 -21 -20 -43 -20
-50 0 -7 -4 -13 -9 -13 -5 0 -12 -12 -16 -27 -3 -15 -12 -31 -18 -35 -6 -3
-12 -17 -14 -29 -2 -13 -10 -30 -17 -38 -8 -9 -16 -25 -17 -35 -5 -24 -29 -34
-29 -11 0 24 20 56 30 50 6 -3 7 0 4 8 -3 8 8 41 25 73 92 182 100 204 102
299 1 50 6 98 11 108 9 18 19 291 10 314 -6 17 -363 291 -409 315 -16 8 -30 8
-45 1 -19 -9 -26 -26 -40 -104 -10 -52 -20 -123 -23 -159 -4 -36 -10 -78 -15
-95 -5 -16 -12 -70 -16 -120 -3 -49 -10 -98 -15 -107 -5 -9 -11 -57 -14 -106
-3 -49 -10 -104 -15 -123 -6 -19 -10 -68 -10 -109 0 -41 -6 -97 -13 -125 -8
-27 -15 -81 -16 -120 -1 -38 -8 -92 -16 -120 -7 -27 -16 -83 -20 -124 -3 -41
-9 -79 -13 -85 -12 -20 -17 -55 -23 -169 -1 -32 -8 -65 -14 -74 -10 -13 -12 3
-9 80 1 52 7 104 12 114 5 10 10 47 11 83 3 101 10 159 19 178 5 9 10 44 11
77 3 71 9 119 21 160 5 17 11 63 14 102 3 40 10 83 17 95 6 12 14 62 16 112 3
49 12 108 19 129 8 22 14 72 14 113 0 40 5 85 11 101 6 15 13 60 15 98 3 39 9
97 14 130 20 133 21 162 5 175 -20 17 -31 6 -75 -75 -18 -33 -39 -69 -45 -80
-19 -31 -125 -234 -152 -290 -13 -27 -35 -70 -48 -95 -13 -25 -36 -71 -51
-102 -16 -32 -32 -58 -36 -58 -4 0 -8 -9 -8 -19 0 -11 -6 -26 -13 -33 -7 -7
-18 -26 -25 -42 -7 -16 -15 -26 -19 -23 -3 3 45 107 106 231 61 124 111 230
111 236 0 5 5 10 10 10 6 0 10 4 10 10 0 5 27 65 60 133 33 69 60 134 60 145
0 23 -19 41 -51 47 -13 3 -36 10 -51 16 -16 7 -43 8 -65 4 -57 -10 -192 -17
-209 -11 -25 10 22 65 74 87 47 21 74 20 150 0 23 -7 47 -9 52 -6 6 3 10 2 10
-2 0 -5 10 -13 23 -18 12 -6 22 -17 22 -25 0 -8 5 -15 12 -15 6 0 15 -3 19 -7
13 -13 61 -9 73 6 13 16 -1 56 -19 56 -19 0 -10 57 13 77 38 35 57 36 107 4z
m5866 -12 c6 -5 14 -6 17 -3 8 9 18 -57 13 -83 -3 -12 -15 -33 -27 -45 -12
-13 -18 -16 -14 -9 5 8 -7 4 -25 -9 -18 -13 -30 -18 -25 -10 6 10 4 12 -8 7
-10 -4 -17 -1 -17 5 0 6 -3 9 -6 5 -13 -13 -37 27 -41 66 -3 43 7 63 42 83 21
12 73 8 91 -7z m-4278 -351 c1 -19 10 -73 12 -73 5 0 21 -116 23 -170 1 -16 5
-32 8 -35 4 -3 10 -57 14 -120 4 -63 9 -124 12 -135 3 -11 9 -56 13 -100 14
-135 19 -178 29 -240 5 -33 10 -91 10 -128 1 -38 6 -77 11 -88 13 -23 21 -231
9 -224 -11 7 -17 50 -24 155 -2 47 -8 96 -11 110 -9 37 -23 158 -25 217 -1 29
-5 50 -9 48 -4 -2 -7 1 -7 8 -2 69 -16 218 -23 242 -5 17 -12 67 -15 113 -4
46 -8 93 -10 104 -8 39 -18 133 -20 178 0 25 -4 50 -6 55 -4 8 -4 81 0 93 3 6
8 1 9 -10z m2169 -150 c15 -7 31 -17 35 -23 4 -5 8 -6 8 -1 0 5 18 -9 40 -32
37 -37 40 -45 40 -97 0 -37 -8 -75 -25 -115 -14 -33 -25 -66 -25 -74 0 -27 33
-85 44 -79 6 4 4 -1 -4 -11 -8 -11 -16 -14 -18 -7 -3 10 -150 61 -177 61 -7 0
-17 -9 -20 -20 -3 -11 -15 -25 -26 -31 -11 -5 -17 -14 -14 -20 4 -5 1 -9 -5
-9 -6 0 -9 -4 -5 -9 3 -5 0 -13 -6 -17 -8 -4 -9 -3 -5 4 4 7 2 12 -3 12 -6 0
-10 3 -9 8 1 4 -4 20 -10 35 -7 16 -12 40 -12 55 0 26 -55 129 -85 159 -23 22
-19 69 8 90 13 10 34 33 47 52 47 64 160 98 227 69z m-1377 -150 c19 -18 53
-47 75 -63 22 -16 81 -66 131 -110 50 -44 110 -98 135 -119 24 -21 80 -71 124
-110 120 -106 212 -187 264 -229 25 -21 57 -48 71 -59 34 -28 176 -155 220
-195 35 -33 73 -43 85 -22 4 6 7 26 7 45 0 19 4 34 8 34 5 0 7 9 5 20 -2 11
-1 18 4 16 9 -6 8 -87 -2 -103 -12 -19 4 -93 23 -106 10 -7 59 -50 110 -97 51
-47 100 -92 110 -100 60 -52 98 -89 118 -115 13 -17 27 -30 30 -30 4 0 6 -3 4
-8 -1 -4 1 -6 5 -5 5 1 21 -10 37 -24 20 -20 36 -26 57 -24 16 2 29 -1 29 -7
0 -6 7 -2 15 9 10 13 8 2 -6 -34 -10 -29 -16 -58 -13 -64 4 -7 2 -8 -5 -4 -12
8 -9 -32 5 -56 5 -10 4 -10 -5 -2 -6 6 -13 20 -16 32 -4 23 -64 140 -67 132
-3 -5 -47 32 -110 91 -21 20 -38 35 -38 33 0 -4 -17 11 -168 147 -129 116
-136 121 -168 122 -27 1 -103 -18 -179 -44 -39 -14 -105 -32 -305 -86 -91 -24
-190 -51 -220 -59 -30 -8 -74 -19 -98 -24 -23 -5 -51 -14 -61 -20 -11 -5 -34
-10 -51 -10 -17 0 -41 -6 -53 -14 -12 -8 -40 -16 -62 -17 -22 -2 -43 -7 -46
-12 -9 -13 -85 -25 -100 -16 -14 8 11 17 63 23 15 1 33 8 40 14 8 6 35 13 61
15 25 2 52 9 59 15 7 5 31 13 52 18 22 4 51 13 65 20 14 8 38 14 53 14 15 0
29 4 32 9 3 5 23 12 43 16 21 3 58 13 83 20 174 54 469 135 487 135 21 0 103
39 103 50 0 12 -15 27 -100 100 -35 30 -82 71 -104 90 -22 19 -68 63 -103 98
-34 34 -65 62 -69 62 -3 0 -34 27 -68 59 -33 33 -106 96 -161 142 -112 91
-241 207 -322 287 -29 28 -57 52 -63 52 -6 0 -8 5 -5 10 3 6 2 10 -4 10 -6 0
-25 15 -44 34 -19 18 -46 41 -60 51 -15 9 -24 22 -21 27 4 6 15 2 28 -10 11
-11 37 -35 56 -54z m-2076 -696 c3 -5 -4 -25 -14 -45 -11 -20 -20 -44 -20 -52
0 -8 -4 -15 -10 -15 -5 0 -13 -12 -16 -27 -4 -16 -12 -35 -19 -43 -7 -8 -15
-27 -19 -42 -3 -16 -11 -28 -16 -28 -6 0 -10 -8 -10 -19 0 -10 -7 -24 -15 -31
-8 -7 -15 -23 -15 -35 0 -12 -7 -28 -15 -35 -8 -7 -15 -20 -15 -30 0 -10 -7
-23 -15 -30 -8 -7 -15 -23 -15 -37 0 -13 -7 -26 -15 -29 -8 -4 -15 -16 -15
-29 0 -12 -7 -28 -15 -35 -8 -7 -15 -20 -15 -30 0 -10 -7 -23 -15 -30 -8 -7
-15 -21 -15 -31 0 -9 -6 -24 -13 -31 -8 -7 -17 -26 -21 -41 -3 -15 -11 -27
-16 -27 -6 0 -10 -11 -10 -25 0 -14 -7 -28 -15 -31 -8 -4 -15 -12 -15 -19 0
-20 -50 -115 -60 -115 -13 0 -2 50 15 67 8 8 15 23 15 34 0 10 4 19 10 19 5 0
13 12 16 26 4 15 20 50 35 80 16 29 29 59 29 65 0 6 7 17 15 25 8 9 15 24 15
33 0 10 7 24 15 31 8 7 15 21 15 31 0 11 4 19 9 19 5 0 13 10 16 23 4 12 13
36 20 52 8 17 16 37 19 45 3 8 10 23 16 33 5 9 15 25 20 35 6 9 13 24 16 32 3
8 10 22 15 30 5 8 12 22 15 30 3 8 12 28 20 43 7 16 14 34 14 42 0 7 6 18 14
24 8 7 18 26 21 42 4 16 10 29 15 29 4 0 10 14 14 30 5 29 19 39 30 22z m4310
-194 c18 -26 10 -78 -16 -102 -20 -19 -114 -34 -103 -17 3 5 0 11 -7 13 -15 5
-18 76 -5 105 20 45 100 46 131 1z m-7394 -168 c12 19 41 -6 33 -27 -4 -11 -2
-14 5 -9 8 5 10 1 5 -10 -4 -11 -2 -15 4 -11 6 4 9 -3 7 -18 -1 -14 2 -25 8
-25 5 0 2 -7 -6 -16 -9 -8 -15 -25 -15 -37 1 -20 2 -21 6 -2 3 11 9 24 14 29
4 5 5 -3 0 -19 -7 -27 -11 -29 -59 -30 -41 -1 -51 2 -47 12 3 8 0 11 -6 8 -6
-4 -8 -13 -5 -21 3 -7 0 -16 -7 -20 -7 -4 -9 -4 -5 0 3 4 0 26 -8 48 -17 49
-17 51 -1 42 6 -4 4 1 -5 12 -9 10 -16 24 -16 29 0 20 19 45 29 40 5 -4 9 -3
8 2 -1 4 -1 15 0 23 1 13 2 13 11 0 9 -13 10 -13 10 0 0 13 1 13 10 0 8 -13
10 -12 11 5 1 19 2 19 6 1 4 -14 7 -16 13 -6z m4566 -271 c1 -5 2 -15 3 -23 0
-8 9 -24 20 -37 14 -18 27 -23 57 -21 54 4 67 6 84 17 8 5 36 12 63 15 39 5
45 4 35 -7 -7 -7 -33 -14 -57 -17 -24 -2 -46 -8 -50 -14 -3 -5 -24 -13 -45
-16 -46 -7 -42 -5 -50 -32 -5 -16 0 -26 19 -38 15 -10 34 -25 44 -34 9 -9 37
-33 61 -54 25 -20 59 -49 76 -65 17 -15 53 -46 80 -68 26 -22 55 -47 64 -55 9
-8 36 -31 60 -51 25 -20 61 -52 81 -70 55 -51 89 -81 140 -119 37 -29 93 -76
183 -155 10 -9 75 -64 161 -138 336 -287 343 -293 332 -304 -8 -8 -29 7 -102
72 -38 33 -79 69 -93 80 -13 11 -32 27 -41 35 -9 8 -46 40 -81 70 -36 30 -67
57 -70 60 -3 3 -32 27 -65 54 -33 27 -64 54 -70 60 -5 7 -32 29 -60 51 -67 54
-98 81 -164 141 -50 46 -108 96 -136 116 -23 17 -90 75 -119 103 -17 17 -54
48 -81 70 -28 22 -55 45 -61 50 -60 54 -139 122 -153 129 -9 5 -19 14 -23 20
-5 8 -12 8 -25 0 -14 -9 -24 -7 -45 9 -20 15 -33 18 -55 11 -44 -12 -64 -12
-60 0 2 6 16 13 32 16 32 6 46 34 33 69 -8 22 -6 23 21 19 32 -5 51 19 45 55
-1 11 1 16 4 12 4 -4 8 -11 8 -16z m2746 -401 c15 -6 25 -14 23 -18 -3 -5 -1
-11 4 -14 4 -3 9 -17 9 -31 0 -14 -5 -28 -9 -31 -5 -3 -7 -10 -4 -15 4 -5 -1
-9 -10 -9 -9 0 -14 -4 -11 -9 3 -5 -2 -15 -11 -22 -14 -12 -16 -12 -8 0 5 10
4 12 -3 7 -7 -4 -12 -15 -13 -24 0 -14 -2 -13 -9 3 -6 15 -9 16 -9 4 -1 -9 -9
-23 -19 -32 -17 -15 -18 -15 -18 8 0 26 11 34 19 13 3 -7 4 -3 4 8 -1 15 -6
20 -16 16 -9 -3 -12 -1 -7 6 4 7 2 12 -4 12 -6 0 -8 5 -5 10 3 6 0 10 -7 10
-9 0 -9 3 2 10 12 8 12 10 1 10 -11 0 -11 3 0 17 8 9 9 14 2 10 -8 -5 -9 0 0
22 6 17 14 28 18 25 4 -2 9 2 12 9 6 17 33 19 69 5z m-9511 -532 c-8 -10 -8
-16 2 -25 8 -6 17 -8 21 -4 4 4 4 -1 0 -12 -7 -18 -6 -19 12 -5 15 11 16 11 7
0 -7 -8 -13 -21 -13 -29 0 -11 4 -10 15 5 10 13 13 14 10 3 -4 -10 0 -16 10
-16 9 0 14 6 11 14 -4 8 -1 11 5 8 6 -4 7 -14 4 -24 -12 -30 -16 -63 -6 -57
11 7 8 -20 -4 -31 -4 -4 -5 -3 -1 4 3 6 2 14 -4 18 -6 3 -10 -4 -11 -17 -1
-23 -1 -23 -9 2 l-8 25 -2 -25 -2 -25 -8 25 -8 25 -2 -25 -2 -25 -8 25 -8 25
-2 -25 -2 -25 -8 25 -8 25 -2 -25 -2 -25 -8 25 -8 25 -2 -25 -2 -25 -8 25 c-4
14 -9 18 -9 10 -2 -21 -35 40 -36 68 -1 12 0 20 3 17 3 -3 11 0 19 6 11 10 11
15 1 28 -11 14 -11 14 2 5 25 -19 58 -23 64 -8 3 7 1 16 -5 20 -9 5 6 34 18
34 3 0 0 -6 -6 -14z m1332 -191 c9 2 15 -1 11 -6 -3 -5 -11 -6 -17 -2 -7 4 -5
-1 2 -11 14 -17 15 -17 28 0 8 10 13 13 13 5 0 -7 4 -10 9 -6 5 3 12 1 16 -5
4 -6 12 -7 18 -4 7 4 9 4 5 -1 -4 -4 -3 -15 2 -25 6 -12 5 -17 -5 -17 -7 0
-11 6 -9 12 7 16 -22 39 -31 25 -4 -6 -1 -9 7 -8 7 2 13 -4 13 -12 1 -23 15
-41 27 -34 7 4 8 2 4 -5 -4 -6 -11 -9 -15 -7 -9 6 -8 -40 1 -50 4 -3 3 -16 -1
-28 -5 -11 -7 -29 -5 -39 1 -9 -2 -15 -6 -12 -8 5 -4 50 6 67 3 4 2 8 -1 8 -3
0 -11 -14 -17 -31 -8 -23 -13 -27 -19 -17 -7 10 -9 8 -9 -7 0 -16 -2 -17 -9
-5 -6 8 -7 18 -4 24 3 5 1 6 -5 2 -6 -3 -9 -16 -7 -27 4 -17 2 -19 -10 -9 -8
7 -12 17 -8 23 3 6 1 7 -6 3 -6 -4 -8 -13 -4 -19 4 -8 1 -7 -9 1 -10 8 -19 9
-22 3 -11 -17 -40 -5 -57 25 -9 16 -14 33 -11 38 3 5 0 6 -7 2 -8 -6 -9 -12
-2 -20 8 -9 7 -13 -3 -13 -8 0 -13 7 -11 16 1 9 -2 24 -6 33 -6 10 -5 19 1 23
6 3 7 17 4 30 -3 13 -1 32 6 42 11 17 11 17 6 0 -3 -11 -2 -15 4 -12 6 3 10
16 11 28 0 21 1 21 9 2 8 -18 9 -18 9 -2 1 10 6 15 11 12 6 -3 10 -1 10 4 0 6
5 11 11 11 5 0 7 -6 3 -12 -4 -7 1 -5 11 4 11 10 23 14 29 9 6 -5 19 -7 29 -6z
m-4592 -279 c17 10 50 13 44 3 -5 -7 13 -13 36 -11 3 1 6 -6 6 -13 0 -10 -4
-12 -12 -5 -8 7 -12 5 -12 -5 0 -7 3 -14 6 -13 18 2 31 -3 31 -13 0 -5 -5 -7
-12 -3 -7 4 -8 3 -4 -5 4 -6 11 -9 16 -6 5 3 12 0 16 -7 4 -7 4 -10 -1 -6 -11
10 -37 -42 -30 -60 4 -10 0 -12 -10 -8 -9 3 -13 2 -10 -4 6 -10 -29 -33 -38
-24 -3 3 -8 0 -13 -7 -4 -7 -3 -10 4 -5 6 3 13 3 16 -2 2 -4 -6 -8 -19 -8 -13
0 -22 3 -20 6 2 4 -2 7 -9 7 -8 0 -12 -7 -9 -16 3 -9 -2 -6 -12 7 -12 17 -20
20 -30 12 -14 -11 -21 -4 -44 42 -8 15 -18 25 -24 21 -5 -3 -5 2 1 13 5 11 8
27 7 37 -2 9 0 15 5 12 8 -5 25 24 21 38 -1 5 3 6 9 2 5 -3 10 -1 10 6 0 7 3
10 6 7 3 -4 17 0 32 8 16 8 28 10 30 4 2 -6 8 -8 13 -4z m2432 -1 c-3 -10 0
-15 8 -13 7 2 14 -3 15 -9 1 -7 2 -19 3 -25 1 -10 4 -9 10 1 7 11 10 9 16 -8
6 -19 9 -20 23 -9 15 11 15 10 0 -8 -13 -15 -15 -23 -6 -32 12 -12 18 -103 6
-95 -5 2 -8 -3 -8 -12 0 -9 4 -14 9 -11 5 4 4 -5 -2 -18 -12 -26 -12 -26 -43
29 -6 11 -21 19 -32 19 -18 -1 -20 3 -16 30 4 28 4 28 -10 -7 -16 -43 -32 -63
-24 -31 3 12 2 28 -3 35 -9 15 -12 5 -10 -36 1 -17 0 -17 -9 3 -8 19 -5 30 13
55 27 38 33 73 17 92 -15 18 -5 49 14 42 8 -3 17 1 20 9 3 8 8 14 10 14 3 0 3
-7 -1 -15z m9181 -6 c32 -6 78 -8 103 -4 35 4 43 3 37 -7 -5 -8 -1 -8 11 2 10
8 16 10 12 4 -4 -7 0 -17 8 -24 8 -7 15 -9 15 -5 0 4 6 2 13 -4 8 -6 18 -7 22
-3 5 4 5 0 1 -8 -4 -8 -1 -7 7 3 8 10 17 14 18 8 2 -5 22 3 44 17 40 28 58 33
70 20 4 -4 13 -4 21 -1 21 8 49 -18 32 -28 -10 -7 -10 -9 1 -9 9 0 7 -5 -6
-17 -10 -10 -14 -16 -8 -13 6 3 -1 -5 -15 -17 -14 -13 -29 -23 -33 -23 -5 0
-6 -4 -3 -8 3 -5 0 -9 -7 -10 -7 -1 -23 -3 -37 -5 -14 -1 -31 4 -38 13 -10 10
-11 11 -6 1 5 -9 3 -12 -4 -7 -7 4 -12 15 -13 24 0 11 -2 12 -6 4 -2 -6 -9
-10 -14 -6 -5 3 -9 1 -9 -3 0 -12 -46 -9 -63 5 -11 9 -14 8 -14 -3 0 -8 5 -11
10 -8 6 4 7 1 2 -7 -6 -10 -11 -9 -21 4 -11 16 -13 16 -16 -4 -2 -11 -7 -20
-12 -20 -5 1 -13 -4 -18 -12 -7 -9 -8 -7 -4 7 l6 20 -16 -20 c-16 -20 -16 -20
-11 3 5 19 3 21 -9 11 -12 -10 -13 -9 -8 5 5 14 -4 15 -90 12 -75 -2 -99 0
-108 11 -14 17 -20 46 -9 39 4 -3 22 4 40 15 27 16 32 24 27 44 -5 21 -3 23
16 19 13 -2 49 -9 82 -15z m-13012 -39 c-5 -13 -3 -13 11 -1 15 12 18 10 26
-10 5 -13 10 -18 10 -11 1 7 6 10 11 7 6 -4 7 -12 3 -18 -4 -7 0 -7 10 1 14
12 16 11 12 -7 -2 -11 1 -24 7 -27 7 -4 8 -2 4 4 -4 7 -2 12 3 12 6 0 11 -5
11 -11 0 -5 5 -7 11 -3 8 5 8 1 0 -14 -16 -30 -14 -39 4 -16 14 17 15 18 9 0
-4 -11 -1 -21 7 -27 8 -4 15 -13 15 -19 1 -5 2 -11 4 -12 1 -2 3 -10 5 -18 12
-47 14 -62 8 -56 -4 4 -8 13 -10 21 -2 8 -4 22 -6 30 -2 8 -6 17 -10 21 -6 7
-3 -12 9 -58 11 -40 12 -78 3 -72 -5 3 -9 2 -10 -3 0 -4 -2 -19 -5 -33 -3 -19
-2 -21 6 -10 5 8 10 10 10 4 0 -5 -18 -23 -40 -40 -22 -16 -40 -33 -40 -38 0
-6 15 3 32 20 18 16 25 20 15 8 -9 -11 -14 -24 -10 -29 5 -4 3 -5 -4 -1 -6 3
-14 2 -18 -3 -3 -6 -13 -7 -22 -4 -12 5 -14 3 -8 -8 7 -12 6 -12 -9 1 -19 15
-49 23 -41 11 2 -4 -2 -8 -10 -8 -8 0 -12 4 -10 8 3 4 -2 10 -11 13 -8 3 -12
2 -9 -4 3 -6 -1 -7 -9 -4 -9 3 -13 11 -9 17 4 6 1 7 -8 1 -28 -17 -40 -14 -27
9 11 21 10 21 -9 5 -19 -17 -21 -17 -49 14 -20 23 -22 27 -5 13 l24 -20 -14
23 c-8 12 -19 22 -24 22 -22 0 -35 23 -22 39 8 10 8 12 1 8 -7 -4 -15 0 -18 9
-3 8 -2 13 3 10 4 -3 6 6 3 19 -2 14 -8 22 -13 20 -8 -6 -4 28 6 44 3 5 1 13
-5 16 -8 5 -8 11 -1 19 6 7 8 16 4 19 -3 4 -1 7 5 7 6 0 9 9 7 19 -2 11 7 29
21 42 23 21 24 22 18 4 -7 -20 -7 -20 9 0 8 11 13 24 10 29 -4 5 -1 6 5 2 6
-3 15 2 21 11 8 15 13 16 30 6 15 -9 22 -10 27 -1 4 7 3 8 -4 4 -7 -4 -12 -3
-12 2 0 5 15 9 34 9 26 -1 32 -5 28 -17z m12709 -29 c-7 -5 -21 -8 -30 -6 -9
1 -19 -2 -22 -8 -8 -12 -889 -21 -889 -9 0 12 -11 12 410 18 212 3 394 6 405
7 70 7 138 6 126 -2z m-6557 -33 c3 -23 17 -38 29 -32 7 4 2 -4 -11 -18 -12
-13 -19 -27 -16 -31 4 -3 15 4 25 16 13 14 18 17 17 7 -2 -8 2 -14 9 -13 8 2
10 -4 6 -14 -5 -12 -3 -14 7 -8 8 5 11 4 6 -3 -3 -6 -2 -13 4 -17 6 -4 8 -11
5 -16 -4 -5 -3 -19 0 -30 6 -17 9 -19 16 -8 5 8 9 10 10 4 0 -5 2 -22 3 -38 3
-29 16 -50 16 -26 0 8 6 3 13 -11 8 -15 20 -24 31 -22 23 4 48 -18 41 -36 -4
-12 -3 -13 10 -2 13 11 14 10 9 -5 -5 -13 -4 -16 4 -11 8 4 12 0 12 -11 0 -15
2 -16 10 -3 8 12 10 11 10 -6 0 -28 10 -36 26 -23 11 9 16 6 23 -12 10 -28 3
-47 -11 -28 -8 11 -9 11 -5 -1 2 -8 10 -14 16 -12 7 1 10 -1 7 -6 -2 -4 6 -8
19 -8 14 0 22 2 20 5 -3 2 0 10 7 18 9 11 8 13 -2 11 -7 -2 -15 4 -17 12 -3 9
-1 11 4 5 7 -9 20 -14 50 -19 7 -1 16 -6 20 -11 4 -4 2 -5 -6 0 -10 6 -12 4
-6 -4 5 -9 10 -10 18 -2 7 7 16 7 29 0 10 -5 18 -7 18 -3 0 3 12 -1 26 -11 18
-11 24 -12 18 -4 -6 11 -5 12 8 2 8 -7 18 -10 21 -6 4 3 7 1 7 -6 0 -7 5 -9
10 -6 6 3 10 1 10 -6 0 -7 3 -10 6 -6 3 3 23 -4 43 -17 35 -22 65 -35 86 -36
6 -1 21 -8 35 -17 29 -19 85 -18 115 1 11 7 26 34 34 60 7 25 26 60 42 77 25
26 33 30 61 24 51 -11 60 -23 53 -69 -8 -59 -20 -105 -39 -149 -17 -38 -17
-38 13 -67 16 -17 36 -30 44 -30 8 0 18 -7 21 -16 4 -9 9 -14 12 -11 3 3 13
-2 23 -11 9 -9 27 -24 40 -32 l24 -16 -29 1 c-16 0 -35 5 -43 9 -10 6 -12 5
-7 -2 10 -16 1 -15 -34 3 -17 9 -30 12 -30 8 0 -5 -4 -3 -8 3 -15 23 -73 44
-122 44 -48 0 -54 3 -98 49 -44 45 -102 77 -116 64 -3 -4 -6 -1 -6 5 0 7 -3
11 -7 10 -5 -1 -21 4 -38 11 -16 7 -41 15 -55 18 -13 2 -31 10 -39 16 -12 10
-13 9 -7 -3 4 -8 0 -6 -8 4 -12 15 -16 16 -17 5 0 -10 -2 -10 -6 -1 -2 6 -9
10 -14 6 -5 -3 -9 0 -9 6 0 6 -4 8 -10 5 -5 -3 -10 0 -10 7 0 10 -2 10 -9 -1
-7 -10 -12 -8 -24 9 -11 15 -16 18 -20 8 -3 -7 -6 -2 -6 12 -1 21 -3 22 -12
10 -8 -11 -9 -8 -5 15 l6 30 -15 -25 c-16 -28 -21 -9 -5 21 6 10 8 19 6 19 -3
0 -12 -12 -20 -27 -8 -16 -15 -23 -16 -16 0 6 -9 10 -20 8 -11 -2 -22 0 -25 6
-4 5 -17 7 -31 5 -13 -3 -22 -1 -19 4 3 4 -2 11 -10 14 -10 4 -19 -3 -25 -19
-5 -14 -13 -25 -17 -24 -22 4 -33 -2 -27 -13 4 -7 4 -10 -1 -6 -4 4 -14 3 -22
-3 -7 -6 -13 -8 -13 -4 0 4 -8 1 -17 -6 -9 -8 -14 -9 -11 -4 3 6 -4 10 -17 10
-13 0 -21 -3 -19 -7 2 -4 0 -10 -6 -13 -6 -4 -9 -1 -8 7 2 7 -3 12 -10 10 -8
-1 -11 2 -7 8 9 15 -14 41 -29 33 -6 -3 -8 -3 -4 2 4 4 -2 22 -14 39 l-22 31
24 -20 c18 -14 21 -15 11 -3 -7 9 -9 23 -5 29 5 8 3 9 -6 4 -10 -6 -12 -4 -7
7 3 9 0 21 -6 28 -9 10 -9 11 1 6 6 -4 12 -2 12 3 0 10 -14 15 -32 12 -13 -2
-9 6 9 20 11 10 14 10 9 2 -10 -18 4 -16 25 3 13 12 19 12 25 3 5 -8 3 -10 -6
-4 -9 6 -11 4 -5 -5 6 -9 4 -11 -5 -5 -9 6 -11 4 -6 -4 6 -9 13 -8 27 5 10 9
16 20 14 24 -3 5 -2 10 2 13 5 2 3 2 -4 1 -7 -2 -15 2 -19 8 -4 6 -3 8 4 4 6
-3 13 -2 17 4 4 6 10 8 15 5 5 -3 12 0 17 7 11 18 13 39 3 33 -5 -3 -14 3 -20
12 -10 16 -11 16 -6 1 3 -10 1 -20 -5 -23 -5 -4 -6 -11 -3 -17 4 -6 2 -8 -4
-4 -7 4 -7 17 0 42 8 30 7 39 -8 53 -11 11 -14 11 -9 2 5 -9 4 -12 -2 -8 -5 3
-10 0 -10 -8 0 -12 3 -12 15 -2 13 10 14 8 8 -18 -4 -16 -12 -34 -17 -40 -7
-7 -8 -4 -3 8 3 9 1 24 -6 32 -7 8 -9 15 -5 15 4 0 2 7 -5 15 -7 8 -9 15 -5
15 4 0 1 7 -6 16 -14 17 -21 45 -11 41 4 -1 7 3 7 8 0 6 -2 9 -5 8 -3 -1 -6
12 -6 28 -2 29 5 34 10 7z m-56 -500 c-2 -7 2 -14 7 -15 6 -1 9 6 7 15 -2 15
-1 15 8 -1 6 -9 8 -23 4 -30 -5 -7 0 -6 12 3 10 8 16 10 12 6 -4 -5 -1 -14 7
-20 17 -13 30 -60 13 -50 -7 4 -7 0 0 -12 13 -27 7 -95 -9 -105 -8 -5 -10 -9
-6 -9 12 0 -19 -30 -31 -30 -6 0 -12 -7 -16 -15 -3 -9 -12 -12 -22 -8 -13 5
-15 3 -9 -7 6 -10 4 -11 -6 -4 -8 4 -20 9 -27 10 -8 2 -23 11 -35 21 -14 12
-18 13 -12 3 8 -13 7 -13 -11 0 -29 22 -30 24 -12 17 12 -4 16 -1 15 13 -1 15
-4 17 -16 7 -12 -10 -13 -9 -3 9 6 12 8 25 4 29 -4 5 -1 5 6 1 11 -7 14 -3 16
27 1 6 8 18 16 25 13 12 13 13 0 6 -10 -5 -9 0 4 14 11 12 16 22 11 22 -4 0
-2 6 4 13 6 8 7 18 3 22 -4 5 -1 5 6 1 8 -5 16 1 21 16 6 13 10 17 10 9 1 -8
-9 -26 -21 -40 l-23 -26 27 23 c14 13 29 35 32 48 6 24 19 35 14 12z"/>
<path d="M17504 9988 c-5 -7 -3 -8 6 -3 10 6 12 4 7 -9 -4 -10 -3 -15 3 -11
13 8 50 -59 111 -200 59 -136 110 -201 167 -211 18 -4 38 -2 43 3 6 6 17 41
25 79 9 38 22 94 29 124 7 30 20 89 29 130 9 41 21 76 26 78 5 2 6 10 3 18 -4
12 -43 14 -223 14 -155 0 -221 -3 -226 -12z"/>
<path d="M17979 9995 c-1 -3 -2 -8 -3 -12 -1 -5 -4 -12 -8 -18 -3 -5 -9 -32
-12 -60 -4 -27 -11 -66 -16 -85 -5 -19 -12 -51 -15 -70 -3 -19 -10 -51 -15
-70 -25 -97 -28 -149 -9 -161 18 -11 86 31 97 59 11 30 41 184 49 252 2 25 11
70 19 101 8 31 14 60 14 63 0 7 -99 8 -101 1z"/>
<path d="M18109 9998 c0 -2 -3 -16 -5 -33 -2 -16 -8 -48 -14 -70 -5 -22 -11
-60 -14 -85 -2 -25 -9 -65 -15 -90 -6 -25 -12 -63 -15 -85 -3 -22 -7 -49 -11
-60 -4 -13 3 -32 20 -54 14 -19 25 -40 25 -47 0 -7 8 -15 18 -17 56 -16 79
-20 92 -18 16 2 69 60 70 75 0 4 14 28 30 53 17 24 30 46 30 49 0 2 12 23 27
47 46 70 52 81 64 110 6 15 15 27 20 27 5 0 9 5 9 10 0 6 12 29 27 53 32 49
73 124 73 132 0 5 -429 8 -431 3z"/>
<path d="M18554 9953 c-15 -27 -33 -57 -39 -68 -10 -19 -44 -76 -72 -120 -7
-11 -21 -36 -31 -55 -10 -20 -48 -86 -85 -147 -67 -110 -79 -143 -54 -143 21
0 39 19 122 130 87 117 246 322 255 330 3 3 24 31 48 63 l43 57 -80 0 -79 0
-28 -47z"/>
<path d="M17720 9486 c0 -14 5 -28 10 -31 6 -3 10 -13 10 -21 0 -13 23 -71 51
-129 5 -11 11 -31 14 -44 2 -12 9 -29 15 -36 5 -6 11 -24 12 -38 2 -26 31 -44
67 -43 19 1 48 89 56 168 4 37 11 70 16 74 12 7 -17 57 -44 73 -20 13 -165 51
-193 51 -8 0 -14 -10 -14 -24z"/>
<path d="M18007 9403 c-8 -15 -17 -55 -19 -88 -3 -33 -10 -70 -16 -82 -16 -29
-15 -39 4 -57 22 -22 92 -20 132 4 17 11 32 24 32 28 0 5 13 25 30 43 16 19
32 41 35 50 8 23 -12 68 -32 76 -10 3 -36 14 -58 24 -77 34 -92 34 -108 2z"/>
<path d="M18373 9293 c-19 -7 -16 -16 18 -54 17 -19 56 -63 87 -99 31 -35 74
-82 94 -103 36 -36 38 -37 61 -22 13 8 34 38 47 65 19 41 21 54 12 75 -6 14
-17 25 -23 25 -7 0 -37 12 -67 26 -30 14 -66 28 -80 30 -15 3 -33 10 -40 17
-8 6 -23 12 -33 14 -11 2 -30 9 -42 17 -12 7 -28 12 -34 9z"/>
<path d="M18224 9268 c-44 -50 -76 -100 -71 -111 2 -7 29 -21 58 -31 30 -11
65 -26 79 -33 14 -7 31 -13 38 -13 7 0 20 -4 30 -9 9 -4 40 -18 67 -31 28 -13
58 -27 67 -31 23 -11 48 -11 48 0 0 8 -33 53 -60 81 -8 9 -42 47 -75 85 -33
38 -70 80 -82 92 -29 30 -73 30 -99 1z"/>
<path d="M11278 1853 c-33 -8 -23 -18 48 -52 67 -31 134 -61 219 -96 50 -20
133 -57 185 -82 52 -25 111 -52 130 -61 19 -8 49 -22 65 -29 28 -14 34 -12
110 26 89 44 129 76 119 94 -21 36 -36 44 -96 46 -34 1 -69 6 -78 11 -18 9
-40 14 -120 25 -25 3 -58 10 -75 15 -54 15 -169 40 -230 49 -107 17 -228 42
-244 50 -9 4 -24 6 -33 4z"/>
<path d="M12115 1565 c-33 -19 -73 -40 -90 -48 -35 -16 -59 -42 -74 -77 -6
-14 -21 -41 -32 -60 -20 -32 -204 -387 -236 -455 -8 -16 -19 -39 -25 -50 -7
-11 -46 -87 -88 -170 -86 -168 -199 -386 -284 -548 -31 -60 -61 -119 -66 -133
l-10 -24 125 0 125 0 118 243 c65 133 138 283 162 332 74 156 271 559 281 575
5 8 12 22 15 30 3 8 10 22 15 30 5 8 12 22 15 30 3 8 12 27 20 42 8 14 14 33
14 41 0 8 7 20 15 27 8 7 15 20 15 30 0 10 7 23 15 30 8 7 15 21 15 31 0 10 7
22 15 26 21 12 30 93 13 115 -12 16 -17 15 -73 -17z"/>
<path d="M12283 1504 c-8 -21 4 -116 16 -123 5 -3 12 -35 16 -71 4 -36 11 -69
15 -75 7 -9 24 -127 20 -141 -1 -4 2 -10 8 -13 5 -3 14 -33 20 -66 6 -33 18
-91 26 -130 9 -38 21 -95 27 -125 6 -30 17 -77 25 -104 8 -26 14 -66 14 -87 0
-21 4 -40 9 -44 6 -3 13 -27 16 -53 3 -26 12 -69 20 -96 8 -26 15 -63 15 -81
0 -18 9 -44 21 -59 17 -21 29 -26 67 -26 26 0 103 -7 172 -15 69 -8 153 -15
186 -15 34 0 83 -4 111 -9 51 -10 121 -16 288 -26 54 -4 102 -8 105 -10 3 -2
49 -6 101 -10 124 -7 198 -14 229 -20 14 -3 57 -8 96 -11 59 -5 77 -2 112 16
49 26 62 55 36 80 -11 10 -193 148 -407 308 -213 161 -393 296 -400 302 -6 5
-54 42 -106 81 -52 39 -101 77 -108 85 -8 8 -24 19 -36 26 -19 10 -89 63 -123
93 -6 6 -22 17 -34 25 -12 8 -32 23 -43 34 -12 10 -33 26 -47 35 -31 19 -35
23 -85 66 -22 19 -45 35 -52 35 -6 0 -13 4 -15 9 -3 9 -294 231 -303 231 -3 0
-8 -7 -12 -16z"/>
<path d="M12212 1480 c-12 -12 -22 -27 -22 -35 0 -7 -7 -26 -15 -42 -7 -15
-23 -48 -35 -73 -12 -25 -25 -52 -30 -60 -5 -8 -11 -22 -14 -30 -3 -8 -10 -22
-15 -30 -5 -8 -24 -46 -41 -85 -18 -38 -36 -77 -41 -85 -4 -8 -18 -35 -29 -60
-12 -25 -43 -90 -70 -145 -26 -55 -80 -167 -120 -250 -39 -82 -114 -237 -166
-343 -52 -106 -99 -204 -104 -218 l-10 -24 430 0 429 0 78 97 c42 54 76 104
75 113 0 8 -8 53 -17 100 -9 47 -21 110 -26 140 -5 30 -13 64 -19 75 -5 11
-11 44 -15 73 -3 30 -9 61 -14 70 -5 10 -12 46 -16 82 -4 36 -11 70 -15 75 -4
6 -11 37 -15 70 -4 33 -11 65 -15 70 -5 6 -12 37 -15 70 -4 33 -11 67 -15 75
-4 8 -11 38 -15 65 -4 28 -13 69 -21 93 -8 23 -14 62 -14 85 0 24 -5 48 -11
54 -9 9 -14 29 -18 86 -1 13 -17 8 -39 -13z"/>
<path d="M12476 97 c-36 -47 -66 -88 -66 -91 0 -3 353 -6 785 -6 l786 0 -16
30 c-11 22 -23 30 -43 31 -15 0 -34 2 -42 4 -51 10 -97 15 -195 20 -137 7
-203 13 -235 20 -14 2 -74 7 -135 11 -60 3 -128 8 -150 10 -81 9 -243 23 -340
29 -54 3 -103 9 -107 11 -4 3 -46 8 -92 10 l-84 5 -66 -84z"/>
</g>
</svg>
