<?xml version="1.0" standalone="no"?>
<!DOCTYPE svg PUBLIC "-//W3C//DTD SVG 20010904//EN"
 "http://www.w3.org/TR/2001/REC-SVG-20010904/DTD/svg10.dtd">
<svg version="1.0" xmlns="http://www.w3.org/2000/svg"
 width="1200.000000pt" height="1200.000000pt" viewBox="0 0 1200.000000 1200.000000"
 preserveAspectRatio="xMidYMid meet">
<metadata>
Created by potrace 1.16, written by Peter Selinger 2001-2019
</metadata>
<g transform="translate(0.000000,1200.000000) scale(0.100000,-0.100000)"
fill="#000000" stroke="none">
<path d="M955 11639 c-169 -25 -331 -118 -444 -254 -51 -61 -115 -188 -138
-275 -17 -62 -18 -331 -18 -5110 0 -4779 1 -5048 18 -5110 68 -253 264 -449
517 -517 62 -17 331 -18 5110 -18 4779 0 5048 1 5110 18 87 23 214 87 275 138
113 94 203 235 242 379 17 62 18 331 18 5110 0 4779 -1 5048 -18 5110 -39 144
-129 285 -242 379 -58 49 -184 113 -270 138 -57 17 -320 18 -5080 19 -2815 1
-5046 -2 -5080 -7z m5301 -2119 c857 -67 1637 -424 2235 -1022 279 -279 492
-575 668 -928 676 -1359 410 -2985 -664 -4065 -785 -789 -1915 -1161 -3018
-995 -644 98 -1243 368 -1743 786 -689 575 -1137 1406 -1240 2297 l-6 57 1226
0 1226 0 0 -280 c0 -230 3 -287 15 -317 21 -50 42 -72 90 -94 38 -18 88 -19
955 -19 867 0 917 1 955 19 48 22 69 44 90 94 13 32 15 150 15 949 0 865 -1
915 -19 953 -22 48 -44 69 -94 90 -32 13 -150 15 -947 15 -797 0 -915 -2 -947
-15 -50 -21 -72 -42 -94 -90 -17 -36 -19 -70 -19 -322 l0 -283 -1226 0 -1226
0 6 58 c34 293 113 608 223 887 429 1088 1371 1893 2515 2149 331 74 698 101
1024 76z"/>
</g>
</svg>
